SplineFontDB: 3.0
FontName: Rokkitt-Light
FullName: Rokkitt Light
FamilyName: Rokkitt
Weight: Light
Copyright: Copyright (c) 2011 by vernon adams. All rights reserved.
Version: 1.000
ItalicAngle: 0
UnderlinePosition: -103
UnderlineWidth: 102
Ascent: 1638
Descent: 410
sfntRevision: 0x00010042
LayerCount: 2
Layer: 0 1 "Back"  1
Layer: 1 1 "Fore"  0
XUID: [1021 118 1023546858 13128247]
FSType: 0
OS2Version: 0
OS2_WeightWidthSlopeOnly: 0
OS2_UseTypoMetrics: 1
CreationTime: 1318440780
ModificationTime: 1318445419
PfmFamily: 17
TTFWeight: 300
TTFWidth: 5
LineGap: 0
VLineGap: 0
Panose: 2 0 5 3 5 0 0 2 0 3
OS2TypoAscent: 1650
OS2TypoAOffset: 0
OS2TypoDescent: -433
OS2TypoDOffset: 0
OS2TypoLinegap: 0
OS2WinAscent: 1650
OS2WinAOffset: 0
OS2WinDescent: 433
OS2WinDOffset: 0
HheadAscent: 1650
HheadAOffset: 0
HheadDescent: -433
HheadDOffset: 0
OS2SubXSize: 1331
OS2SubYSize: 1228
OS2SubXOff: 0
OS2SubYOff: 153
OS2SupXSize: 1331
OS2SupYSize: 1228
OS2SupXOff: 0
OS2SupYOff: 716
OS2StrikeYSize: 102
OS2StrikeYPos: 509
OS2Vendor: 'newt'
OS2CodePages: 00000081.00000000
OS2UnicodeRanges: 8000006f.4000204b.00000000.00000000
Lookup: 4 0 1 "'liga' Standard Ligatures lookup 0"  {"'liga' Standard Ligatures lookup 0 subtable"  } ['liga' ('DFLT' <'dflt' > 'latn' <'dflt' > ) ]
Lookup: 258 0 0 "'kern' Horizontal Kerning lookup 0"  {"'kern' Horizontal Kerning lookup 0 subtable" [307,30,0] } ['kern' ('DFLT' <'dflt' > 'latn' <'dflt' > ) ]
MarkAttachClasses: 1
DEI: 91125
ShortTable: maxp 16
  1
  0
  322
  110
  5
  0
  0
  1
  0
  0
  0
  0
  0
  0
  0
  0
EndShort
LangName: 1033 "" "" "" "vernonadams: Rokkitt Light: 2011" "" "Version 1.000" "" "Rokkitt Light is a trademark of vernon adams." "vernon adams" "vernon adams" "Copyright (c) 2011 by vernon adams. All rights reserved." "" "newtypography.co.uk" "" "http://scripts.sil.org/OFL" "" "" "" "Rokkitt Light" 
GaspTable: 3 8 2 16 1 65535 3 0
Encoding: UnicodeBmp
Compacted: 1
UnicodeInterp: none
NameList: Adobe Glyph List
DisplaySize: -48
AntiAlias: 1

StartChar: exclam
Encoding: 33 33 21
Width: 432
GlyphClass: 2
Flags: W
LayerCount: 2
Fore
SplineSet
200 344 m 1,0,-1
 171 809 l 1,1,-1
 171 1171 l 1,2,-1
 260 1171 l 1,3,-1
 260 809 l 1,4,-1
 231 344 l 1,5,-1
 200 344 l 1,0,-1
164 106 m 1,6,-1
 269 106 l 1,7,-1
 267 0 l 1,8,-1
 164 0 l 1,9,-1
 164 106 l 1,6,-1
EndSplineSet
EndChar

StartChar: quotedbl
Encoding: 34 34 22
Width: 543
GlyphClass: 2
Flags: W
LayerCount: 2
Fore
SplineSet
383 854 m 1,0,-1
 351 854 l 1,1,-1
 325 1234 l 1,2,-1
 416 1234 l 1,3,-1
 383 854 l 1,0,-1
190 854 m 1,4,-1
 158 854 l 1,5,-1
 131 1234 l 1,6,-1
 223 1234 l 1,7,-1
 190 854 l 1,4,-1
EndSplineSet
EndChar

StartChar: numbersign
Encoding: 35 35 23
Width: 1034
GlyphClass: 2
Flags: W
LayerCount: 2
Fore
SplineSet
269 880 m 1,0,-1
 298 1234 l 1,1,-1
 377 1234 l 1,2,-1
 348 880 l 1,3,-1
 713 880 l 1,4,-1
 742 1234 l 1,5,-1
 821 1234 l 1,6,-1
 792 880 l 1,7,-1
 980 880 l 1,8,-1
 975 821 l 1,9,-1
 787 821 l 1,10,-1
 757 457 l 1,11,-1
 944 457 l 1,12,-1
 939 398 l 1,13,-1
 752 398 l 1,14,-1
 719 0 l 1,15,-1
 640 0 l 1,16,-1
 673 398 l 1,17,-1
 308 398 l 1,18,-1
 275 0 l 1,19,-1
 196 0 l 1,20,-1
 229 398 l 1,21,-1
 53 398 l 1,22,-1
 58 457 l 1,23,-1
 234 457 l 1,24,-1
 264 821 l 1,25,-1
 89 821 l 1,26,-1
 94 880 l 1,27,-1
 269 880 l 1,0,-1
313 457 m 1,28,-1
 678 457 l 1,29,-1
 708 821 l 1,30,-1
 343 821 l 1,31,-1
 313 457 l 1,28,-1
EndSplineSet
EndChar

StartChar: dollar
Encoding: 36 36 24
Width: 1151
GlyphClass: 2
Flags: W
LayerCount: 2
Fore
SplineSet
701 -23 m 1,0,-1
 701 -190 l 1,1,-1
 641 -190 l 1,2,-1
 641 -20 l 1,3,4
 464 -1 464 -1 303 112 c 1,5,-1
 303 0 l 1,6,-1
 224 0 l 1,7,-1
 224 416 l 1,8,-1
 303 416 l 1,9,-1
 303 196 l 1,10,11
 463 78 463 78 641 57 c 1,12,-1
 641 594 l 1,13,14
 423 616 423 616 329 679 c 0,15,16
 215 756 215 756 215 918.5 c 128,-1,17
 215 1081 215 1081 333.5 1168 c 128,-1,18
 452 1255 452 1255 624 1255 c 2,19,-1
 641 1255 l 1,20,-1
 641 1421 l 1,21,-1
 701 1421 l 1,22,-1
 701 1250 l 1,23,24
 834 1235 834 1235 971 1163 c 1,25,-1
 971 1234 l 1,26,-1
 1050 1234 l 1,27,-1
 1050 899 l 1,28,-1
 971 899 l 1,29,-1
 971 1080 l 1,30,31
 844 1162 844 1162 701 1178 c 1,32,-1
 701 663 l 1,33,34
 900 640 900 640 996 576 c 0,35,36
 1122 492 1122 492 1121 317 c 0,37,38
 1120 194 1120 194 1030 97 c 0,39,40
 919 -23 919 -23 704 -23 c 2,41,-1
 701 -23 l 1,0,-1
951.5 508.5 m 128,-1,43
 871 565 871 565 701 587 c 1,44,-1
 701 53 l 1,45,46
 709 52 709 52 717 52 c 2,47,-1
 764 52 l 2,48,49
 803 52 803 52 859 74 c 0,50,51
 915 96 915 96 953 134 c 0,52,53
 1032 212 1032 212 1032 332 c 128,-1,42
 1032 452 1032 452 951.5 508.5 c 128,-1,43
399 728 m 0,54,55
 468 688 468 688 641 670 c 1,56,-1
 641 1182 l 1,57,-1
 637 1182 l 2,58,59
 473 1182 473 1182 389.5 1109 c 128,-1,60
 306 1036 306 1036 306 909 c 128,-1,61
 306 782 306 782 399 728 c 0,54,55
EndSplineSet
EndChar

StartChar: percent
Encoding: 37 37 25
Width: 1610
GlyphClass: 2
Flags: W
LayerCount: 2
Fore
SplineSet
1446 1310 m 1,0,-1
 1487 1270 l 1,1,-1
 386 -47 l 1,2,-1
 341 0 l 1,3,-1
 1446 1310 l 1,0,-1
646.5 1127 m 128,-1,5
 573 1192 573 1192 474 1192 c 256,6,7
 375 1192 375 1192 302.5 1127 c 128,-1,8
 230 1062 230 1062 230 949 c 128,-1,9
 230 836 230 836 302.5 771 c 128,-1,10
 375 706 375 706 474 706 c 256,11,12
 573 706 573 706 646.5 771 c 128,-1,13
 720 836 720 836 720 949 c 128,-1,4
 720 1062 720 1062 646.5 1127 c 128,-1,5
699 723.5 m 128,-1,15
 604 641 604 641 474 641 c 256,16,17
 345 641 345 641 250.5 723 c 128,-1,18
 156 805 156 805 156 949.5 c 128,-1,19
 156 1094 156 1094 250.5 1174.5 c 128,-1,20
 345 1255 345 1255 474 1255 c 256,21,22
 605 1255 605 1255 699.5 1174 c 128,-1,23
 794 1093 794 1093 794 949.5 c 128,-1,14
 794 806 794 806 699 723.5 c 128,-1,15
1487.5 461 m 128,-1,25
 1414 526 1414 526 1315 526 c 256,26,27
 1216 526 1216 526 1143.5 461 c 128,-1,28
 1071 396 1071 396 1071 283 c 128,-1,29
 1071 170 1071 170 1143.5 105 c 128,-1,30
 1216 40 1216 40 1315 40 c 256,31,32
 1414 40 1414 40 1487.5 105 c 128,-1,33
 1561 170 1561 170 1561 283 c 128,-1,24
 1561 396 1561 396 1487.5 461 c 128,-1,25
1540 57.5 m 128,-1,35
 1445 -25 1445 -25 1315 -25 c 256,36,37
 1186 -25 1186 -25 1091.5 57 c 128,-1,38
 997 139 997 139 997 283.5 c 128,-1,39
 997 428 997 428 1091.5 508.5 c 128,-1,40
 1186 589 1186 589 1315 589 c 256,41,42
 1446 589 1446 589 1540.5 508 c 128,-1,43
 1635 427 1635 427 1635 283.5 c 128,-1,34
 1635 140 1635 140 1540 57.5 c 128,-1,35
EndSplineSet
EndChar

StartChar: ampersand
Encoding: 38 38 26
Width: 1161
GlyphClass: 2
Flags: W
LayerCount: 2
Fore
SplineSet
968 446 m 1,0,1
 968 310 968 310 864 171 c 1,2,-1
 948 68 l 1,3,-1
 1108 68 l 1,4,-1
 1108 0 l 1,5,-1
 914 0 l 1,6,-1
 812 113 l 1,7,8
 709 -2 709 -2 555 -18 c 0,9,10
 510 -22 510 -22 447 -23 c 1,11,12
 301 -23 301 -23 186.5 78.5 c 128,-1,13
 72 180 72 180 72 322.5 c 128,-1,14
 72 465 72 465 138 555.5 c 128,-1,15
 204 646 204 646 373 702 c 1,16,-1
 256 863 l 1,17,18
 206 930 206 930 206 1021 c 128,-1,19
 206 1112 206 1112 283 1183.5 c 128,-1,20
 360 1255 360 1255 487 1255 c 128,-1,21
 614 1255 614 1255 691.5 1189 c 128,-1,22
 769 1123 769 1123 769 1024 c 0,23,24
 769 853 769 853 618 750 c 0,25,26
 561 711 561 711 475 676 c 1,27,-1
 824 229 l 1,28,29
 830 238 830 238 844 257 c 0,30,31
 912 345 912 345 912 511 c 1,32,-1
 1108 511 l 1,33,-1
 1108 446 l 1,34,-1
 968 446 l 1,0,1
410 646 m 1,35,36
 194 582 194 582 156 430 c 0,37,38
 144 384 144 384 145 332 c 1,39,40
 145 220 145 220 237.5 134 c 128,-1,41
 330 48 330 48 449.5 48 c 128,-1,42
 569 48 569 48 639 71.5 c 128,-1,43
 709 95 709 95 773 170 c 1,44,-1
 410 646 l 1,35,36
440 728 m 1,45,46
 652 810 652 810 684 932 c 0,47,48
 694 973 694 973 694 1036 c 128,-1,49
 694 1099 694 1099 635.5 1141 c 128,-1,50
 577 1183 577 1183 489 1183 c 128,-1,51
 401 1183 401 1183 340 1133 c 128,-1,52
 279 1083 279 1083 279 1016.5 c 128,-1,53
 279 950 279 950 323 889 c 2,54,-1
 440 728 l 1,45,46
EndSplineSet
EndChar

StartChar: quotesingle
Encoding: 39 39 27
Width: 350
GlyphClass: 2
Flags: W
LayerCount: 2
Fore
SplineSet
190 854 m 1,0,-1
 158 854 l 1,1,-1
 131 1234 l 1,2,-1
 223 1234 l 1,3,-1
 190 854 l 1,0,-1
EndSplineSet
EndChar

StartChar: parenleft
Encoding: 40 40 28
Width: 580
GlyphClass: 2
Flags: W
LayerCount: 2
Fore
SplineSet
106 616 m 256,0,1
 106 990 106 990 332 1180 c 0,2,3
 408 1244 408 1244 508 1268 c 1,4,-1
 508 1200 l 1,5,6
 267 1114 267 1114 208 800 c 0,7,8
 191 709 191 709 191 616 c 256,9,10
 191 294 191 294 361 122 c 0,11,12
 421 62 421 62 508 31 c 1,13,-1
 508 -37 l 1,14,15
 315 11 315 11 210.5 195.5 c 128,-1,16
 106 380 106 380 106 616 c 256,0,1
EndSplineSet
EndChar

StartChar: parenright
Encoding: 41 41 29
Width: 588
GlyphClass: 2
Flags: W
LayerCount: 2
Fore
SplineSet
480 616 m 256,0,1
 480 242 480 242 254 52 c 0,2,3
 178 -12 178 -12 78 -37 c 1,4,-1
 78 31 l 1,5,6
 319 118 319 118 377 432 c 0,7,8
 394 524 394 524 394 616 c 256,9,10
 394 938 394 938 224 1108 c 0,11,12
 164 1168 164 1168 78 1200 c 1,13,-1
 78 1268 l 1,14,15
 270 1220 270 1220 375 1035.5 c 128,-1,16
 480 851 480 851 480 616 c 256,0,1
EndSplineSet
EndChar

StartChar: asterisk
Encoding: 42 42 30
Width: 934
GlyphClass: 2
Flags: W
LayerCount: 2
Fore
SplineSet
517 1229 m 1,0,-1
 485 818 l 1,1,-1
 859 992 l 1,2,-1
 890 906 l 1,3,-1
 494 785 l 1,4,-1
 763 472 l 1,5,-1
 687 415 l 1,6,-1
 467 761 l 1,7,-1
 246 415 l 1,8,-1
 170 472 l 1,9,-1
 439 785 l 1,10,-1
 43 906 l 1,11,-1
 74 992 l 1,12,-1
 449 818 l 1,13,-1
 416 1229 l 1,14,-1
 517 1229 l 1,0,-1
EndSplineSet
EndChar

StartChar: plus
Encoding: 43 43 31
Width: 811
GlyphClass: 2
Flags: W
LayerCount: 2
Fore
SplineSet
439 598 m 1,0,-1
 794 598 l 1,1,-1
 794 534 l 1,2,-1
 439 534 l 1,3,-1
 439 138 l 1,4,-1
 377 138 l 1,5,-1
 377 534 l 1,6,-1
 20 534 l 1,7,-1
 20 598 l 1,8,-1
 377 598 l 1,9,-1
 377 982 l 1,10,-1
 439 982 l 1,11,-1
 439 598 l 1,0,-1
EndSplineSet
EndChar

StartChar: comma
Encoding: 44 44 32
Width: 412
GlyphClass: 2
Flags: W
LayerCount: 2
Fore
SplineSet
274 116 m 1,0,-1
 274 -6 l 2,1,2
 274 -180 274 -180 139 -180 c 1,3,-1
 139 -136 l 1,4,5
 186 -121 186 -121 198 -95 c 128,-1,6
 210 -69 210 -69 210 -4 c 1,7,-1
 148 -4 l 1,8,-1
 148 116 l 1,9,-1
 274 116 l 1,0,-1
EndSplineSet
EndChar

StartChar: hyphen
Encoding: 45 45 33
Width: 786
GlyphClass: 2
Flags: W
LayerCount: 2
Fore
SplineSet
661 413 m 1,0,-1
 131 413 l 1,1,-1
 131 475 l 1,2,-1
 661 475 l 1,3,-1
 661 413 l 1,0,-1
EndSplineSet
EndChar

StartChar: period
Encoding: 46 46 34
Width: 403
GlyphClass: 2
Flags: W
LayerCount: 2
Fore
SplineSet
263 120 m 1,0,-1
 263 0 l 1,1,-1
 147 0 l 1,2,-1
 147 120 l 1,3,-1
 263 120 l 1,0,-1
EndSplineSet
EndChar

StartChar: slash
Encoding: 47 47 35
Width: 537
GlyphClass: 2
Flags: W
LayerCount: 2
Fore
SplineSet
415 1255 m 1,0,-1
 486 1255 l 1,1,-1
 118 -23 l 1,2,-1
 43 -23 l 1,3,-1
 415 1255 l 1,0,-1
EndSplineSet
EndChar

StartChar: zero
Encoding: 48 48 36
Width: 1124
GlyphClass: 2
Flags: W
LayerCount: 2
Fore
SplineSet
561 -23 m 257,0,1
 333 -23 333 -23 223 151.5 c 128,-1,2
 113 326 113 326 113 616 c 0,3,4
 113 1064 113 1064 357 1206 c 0,5,6
 442 1256 442 1256 561 1255 c 257,7,8
 788 1255 788 1255 898.5 1078 c 128,-1,9
 1009 901 1009 901 1009 616 c 0,10,11
 1009 166 1009 166 765 26 c 0,12,13
 680 -22 680 -22 561 -23 c 257,0,1
925 616 m 0,14,15
 925 1182 925 1182 561 1182 c 128,-1,16
 197 1182 197 1182 197 616 c 0,17,18
 197 329 197 329 284.5 188.5 c 128,-1,19
 372 48 372 48 561 48 c 256,20,21
 750 48 750 48 837.5 188.5 c 128,-1,22
 925 329 925 329 925 616 c 0,14,15
EndSplineSet
EndChar

StartChar: one
Encoding: 49 49 37
Width: 598
GlyphClass: 2
Flags: W
LayerCount: 2
Fore
SplineSet
529 62 m 1,0,-1
 529 0 l 1,1,-1
 102 0 l 1,2,-1
 102 62 l 1,3,-1
 279 62 l 1,4,-1
 279 1147 l 1,5,-1
 123 1118 l 1,6,-1
 106 1186 l 1,7,-1
 360 1234 l 1,8,-1
 360 62 l 1,9,-1
 529 62 l 1,0,-1
EndSplineSet
EndChar

StartChar: two
Encoding: 50 50 38
Width: 993
GlyphClass: 2
Flags: W
LayerCount: 2
Fore
SplineSet
546 1183 m 0,0,1
 306 1184 306 1184 238 1016 c 0,2,3
 216 962 216 962 216 899 c 128,-1,4
 216 836 216 836 232 778 c 1,5,-1
 147 778 l 1,6,7
 135 834 135 834 135 906 c 0,8,9
 135 1060 135 1060 240.5 1157.5 c 128,-1,10
 346 1255 346 1255 515 1255 c 0,11,12
 770 1255 770 1255 852 1056 c 0,13,14
 911.974212034 908.371170377 911.974212034 908.371170377 838.413275861 760.306209105 c 0,15,16
 764.852339688 612.241247834 764.852339688 612.241247834 611.984422271 453.339070519 c 0,17,18
 459.116504854 294.436893204 459.116504854 294.436893204 357.058252427 203.718446602 c 128,-1,19
 255 113 255 113 219 78 c 1,20,-1
 819 78 l 1,21,-1
 819 0 l 1,22,-1
 109 0 l 1,23,-1
 109 80 l 1,24,25
 130 102 130 102 171 138 c 0,26,27
 562 486 562 486 677.5 654 c 128,-1,28
 793 822 793 822 793 932 c 128,-1,29
 793 1042 793 1042 718.5 1112.5 c 128,-1,30
 644 1183 644 1183 546 1183 c 0,0,1
EndSplineSet
EndChar

StartChar: three
Encoding: 51 51 39
Width: 997
GlyphClass: 2
Flags: W
LayerCount: 2
Fore
SplineSet
455 1183 m 0,0,1
 225 1183 225 1183 145 1026 c 1,2,-1
 74 1057 l 1,3,4
 177 1256 177 1256 457 1256 c 0,5,6
 614 1256 614 1256 734 1168 c 128,-1,7
 854 1080 854 1080 854 930.5 c 128,-1,8
 854 781 854 781 723 699 c 0,9,10
 683 674 683 674 636 660 c 1,11,12
 804 620 804 620 859 456 c 0,13,14
 876 406 876 406 876 336 c 0,15,16
 876 188 876 188 750 84.5 c 128,-1,17
 624 -19 624 -19 438.5 -19 c 128,-1,18
 253 -19 253 -19 121 113 c 0,19,20
 77 157 77 157 49 216 c 1,21,-1
 113 257 l 1,22,23
 217 50 217 50 465 50 c 0,24,25
 597 50 597 50 694.5 133.5 c 128,-1,26
 792 217 792 217 792 348 c 0,27,28
 792 602 792 602 464 615 c 0,29,30
 412 617 412 617 363 617 c 2,31,-1
 324 617 l 1,32,-1
 324 697 l 1,33,-1
 418 697 l 2,34,35
 684 697 684 697 748 825 c 0,36,37
 768 866 768 866 769 930 c 1,38,39
 769 1050 769 1050 673.5 1116.5 c 128,-1,40
 578 1183 578 1183 455 1183 c 0,0,1
EndSplineSet
EndChar

StartChar: four
Encoding: 52 52 40
Width: 895
GlyphClass: 2
Flags: W
LayerCount: 2
Fore
SplineSet
4 442 m 1,0,-1
 489 1234 l 1,1,-1
 603 1234 l 1,2,-1
 603 442 l 1,3,-1
 860 442 l 1,4,-1
 860 379 l 1,5,-1
 603 379 l 1,6,-1
 603 62 l 1,7,-1
 764 62 l 1,8,-1
 764 0 l 1,9,-1
 361 0 l 1,10,-1
 361 62 l 1,11,-1
 522 62 l 1,12,-1
 522 379 l 1,13,-1
 15 379 l 1,14,-1
 4 442 l 1,0,-1
522 442 m 1,15,-1
 522 1156 l 1,16,-1
 97 442 l 1,17,-1
 522 442 l 1,15,-1
EndSplineSet
EndChar

StartChar: five
Encoding: 53 53 41
Width: 1022
GlyphClass: 2
Flags: W
LayerCount: 2
Fore
SplineSet
123 217 m 1,0,1
 230 53 230 53 496.5 52.5 c 0,2,3
 763 52 763 52 844 234 c 0,4,5
 872 296 872 296 872 411 c 128,-1,6
 872 526 872 526 791.5 626.5 c 128,-1,7
 711 727 711 727 571 727 c 0,8,9
 346 727 346 727 217 660 c 1,10,-1
 165 685 l 1,11,-1
 165 1234 l 1,12,-1
 813 1234 l 1,13,-1
 812 1164 l 1,14,-1
 244 1164 l 1,15,-1
 235 748 l 1,16,17
 344 796 344 796 498 796 c 128,-1,18
 652 796 652 796 726 764 c 0,19,20
 956 665 956 665 956 375 c 0,21,22
 956 188 956 188 825.5 85 c 128,-1,23
 695 -18 695 -18 497 -18 c 0,24,25
 206 -18 206 -18 76 163 c 1,26,-1
 123 217 l 1,0,1
EndSplineSet
EndChar

StartChar: six
Encoding: 54 54 42
Width: 885
GlyphClass: 2
Flags: W
LayerCount: 2
Fore
SplineSet
480 658 m 0,0,1
 317 658 317 658 223.5 575 c 128,-1,2
 130 492 130 492 130 356.5 c 128,-1,3
 130 221 130 221 188 160 c 0,4,5
 292 49 292 49 441 49 c 256,6,7
 589 49 589 49 673.5 138.5 c 128,-1,8
 758 228 758 228 758 362.5 c 128,-1,9
 758 497 758 497 665.5 577.5 c 128,-1,10
 573 658 573 658 480 658 c 0,0,1
261 678 m 1,11,12
 358 726 358 726 446 726 c 0,13,14
 612 726 612 726 725.5 622.5 c 128,-1,15
 839 519 839 519 839 364 c 128,-1,16
 839 209 839 209 732.5 93 c 128,-1,17
 626 -23 626 -23 457.5 -23 c 128,-1,18
 289 -23 289 -23 171 81 c 128,-1,19
 53 185 53 185 53 331 c 128,-1,20
 53 477 53 477 188 697 c 1,21,-1
 545 1361 l 1,22,-1
 612 1314 l 1,23,-1
 261 678 l 1,11,12
EndSplineSet
EndChar

StartChar: seven
Encoding: 55 55 43
Width: 897
GlyphClass: 2
Flags: W
LayerCount: 2
Fore
SplineSet
368 52 m 1,0,1
 368 697 368 697 782 1164 c 1,2,-1
 155 1164 l 1,3,-1
 155 916 l 1,4,-1
 78 916 l 1,5,-1
 78 1234 l 1,6,-1
 870 1234 l 1,7,-1
 870 1158 l 1,8,9
 526 784 526 784 468 348 c 0,10,11
 450 208 450 208 450 52 c 1,12,-1
 631 52 l 1,13,-1
 631 -11 l 1,14,-1
 204 -11 l 1,15,-1
 204 52 l 1,16,-1
 368 52 l 1,0,1
EndSplineSet
EndChar

StartChar: eight
Encoding: 56 56 44
Width: 1042
GlyphClass: 2
Flags: W
LayerCount: 2
Fore
SplineSet
380 644 m 1,0,1
 152 714 152 714 152 946 c 0,2,3
 152 1067 152 1067 251.5 1161 c 128,-1,4
 351 1255 351 1255 523 1255 c 256,5,6
 695 1255 695 1255 794.5 1161 c 128,-1,7
 894 1067 894 1067 894 925.5 c 0,8,9
 894 784 894 784 764 690 c 0,10,11
 722 660 722 660 666 644 c 1,12,13
 853 607 853 607 915 431 c 0,14,15
 934 377 934 377 934 304 c 0,16,17
 934 154 934 154 812.5 65 c 128,-1,18
 691 -24 691 -24 523 -24 c 128,-1,19
 355 -24 355 -24 233 64.5 c 128,-1,20
 111 153 111 153 111 328.5 c 0,21,22
 112 504 112 504 270 602 c 0,23,24
 320 632 320 632 380 644 c 1,0,1
523 596 m 256,25,26
 370 596 370 596 282.5 514 c 128,-1,27
 195 432 195 432 195 342 c 0,28,29
 195 193 195 193 292.5 121 c 128,-1,30
 390 49 390 49 522.5 49 c 128,-1,31
 655 49 655 49 752.5 121 c 128,-1,32
 850 193 850 193 850 322 c 0,33,34
 850 499 850 499 665 572 c 0,35,36
 604 596 604 596 523 596 c 256,25,26
523 1182 m 256,37,38
 318 1182 318 1182 255 1028 c 0,39,40
 237 984 237 984 237 937 c 256,41,42
 237 833 237 833 291 779 c 0,43,44
 389 679 389 679 523 679 c 256,45,46
 726 680 726 680 790 844 c 0,47,48
 808 890 808 890 808 937 c 256,49,50
 808 1038 808 1038 755 1089 c 0,51,52
 660 1182 660 1182 523 1182 c 256,37,38
EndSplineSet
EndChar

StartChar: nine
Encoding: 57 57 45
Width: 952
GlyphClass: 2
Flags: W
LayerCount: 2
Fore
SplineSet
475 575 m 256,0,1
 603 576 603 576 669 634 c 0,2,3
 791 741 791 741 791 875 c 0,4,5
 792 1009 792 1009 734 1071 c 0,6,7
 630 1183 630 1183 480 1183 c 128,-1,8
 330 1183 330 1183 246.5 1093 c 128,-1,9
 163 1003 163 1003 163 869.5 c 128,-1,10
 163 736 163 736 255.5 655.5 c 128,-1,11
 348 575 348 575 475 575 c 256,0,1
308 -82 m 1,12,-1
 660 554 l 1,13,14
 562 506 562 506 474 506 c 0,15,16
 308 506 308 506 195 609.5 c 128,-1,17
 82 713 82 713 82 868 c 128,-1,18
 82 1023 82 1023 188.5 1139 c 128,-1,19
 295 1255 295 1255 463 1255 c 128,-1,20
 631 1255 631 1255 749.5 1150.5 c 128,-1,21
 868 1046 868 1046 868 905.5 c 128,-1,22
 868 765 868 765 733 535 c 1,23,-1
 376 -128 l 1,24,-1
 308 -82 l 1,12,-1
EndSplineSet
EndChar

StartChar: colon
Encoding: 58 58 46
Width: 416
GlyphClass: 2
Flags: W
LayerCount: 2
Fore
SplineSet
267 815 m 1,0,-1
 267 695 l 1,1,-1
 150 695 l 1,2,-1
 150 815 l 1,3,-1
 267 815 l 1,0,-1
267 314 m 1,4,-1
 267 194 l 1,5,-1
 150 194 l 1,6,-1
 150 314 l 1,7,-1
 267 314 l 1,4,-1
EndSplineSet
EndChar

StartChar: semicolon
Encoding: 59 59 47
Width: 440
GlyphClass: 2
Flags: W
LayerCount: 2
Fore
SplineSet
292 316 m 1,0,-1
 292 193 l 2,1,2
 292 19 292 19 156 19 c 1,3,-1
 156 64 l 1,4,5
 203 79 203 79 215 104.5 c 128,-1,6
 227 130 227 130 227 196 c 1,7,-1
 166 196 l 1,8,-1
 166 316 l 1,9,-1
 292 316 l 1,0,-1
287 815 m 1,10,-1
 287 695 l 1,11,-1
 170 695 l 1,12,-1
 170 815 l 1,13,-1
 287 815 l 1,10,-1
EndSplineSet
EndChar

StartChar: less
Encoding: 60 60 48
Width: 907
GlyphClass: 2
Flags: W
LayerCount: 2
Fore
SplineSet
-18 613 m 1,0,-1
 829 1255 l 1,1,-1
 829 1162 l 1,2,-1
 96 613 l 1,3,-1
 829 68 l 1,4,-1
 829 -23 l 1,5,-1
 -18 613 l 1,0,-1
EndSplineSet
EndChar

StartChar: equal
Encoding: 61 61 49
Width: 791
GlyphClass: 2
Flags: W
LayerCount: 2
Fore
SplineSet
652 634 m 1,0,-1
 143 634 l 1,1,-1
 143 696 l 1,2,-1
 652 696 l 1,3,-1
 652 634 l 1,0,-1
652 356 m 1,4,-1
 143 356 l 1,5,-1
 143 419 l 1,6,-1
 652 419 l 1,7,-1
 652 356 l 1,4,-1
EndSplineSet
EndChar

StartChar: greater
Encoding: 62 62 50
Width: 909
GlyphClass: 2
Flags: W
LayerCount: 2
Fore
SplineSet
86 -23 m 1,0,-1
 86 68 l 1,1,-1
 819 613 l 1,2,-1
 86 1162 l 1,3,-1
 86 1255 l 1,4,-1
 933 613 l 1,5,-1
 86 -23 l 1,0,-1
EndSplineSet
EndChar

StartChar: question
Encoding: 63 63 51
Width: 727
GlyphClass: 2
Flags: W
LayerCount: 2
Fore
SplineSet
325 1151 m 0,0,1
 142 1151 142 1151 81 1004 c 1,2,-1
 20 1040 l 1,3,4
 96 1223 96 1223 315 1223.5 c 0,5,6
 534 1224 534 1224 616 1048 c 0,7,8
 642 992 642 992 642 906 c 128,-1,9
 642 820 642 820 605 766 c 128,-1,10
 568 712 568 712 489.5 644 c 128,-1,11
 411 576 411 576 365.5 499.5 c 128,-1,12
 320 423 320 423 313 289 c 1,13,-1
 280 289 l 1,14,15
 280 544 280 544 422 674 c 0,16,17
 515 759 515 759 540 808.5 c 128,-1,18
 565 858 565 858 565 938 c 128,-1,19
 565 1018 565 1018 502.5 1084.5 c 128,-1,20
 440 1151 440 1151 325 1151 c 0,0,1
349 -23 m 1,21,-1
 265 -23 l 1,22,-1
 265 56 l 1,23,-1
 349 56 l 1,24,-1
 349 -23 l 1,21,-1
EndSplineSet
EndChar

StartChar: at
Encoding: 64 64 52
Width: 1458
GlyphClass: 2
Flags: W
LayerCount: 2
Fore
SplineSet
964 840 m 1,0,-1
 988 962 l 1,1,-1
 1075 962 l 1,2,-1
 953 402 l 2,3,4
 951 392 951 392 951 375 c 128,-1,5
 951 358 951 358 967.5 341.5 c 128,-1,6
 984 325 984 325 1017.5 325 c 128,-1,7
 1051 325 1051 325 1116 375 c 128,-1,8
 1181 425 1181 425 1229.5 517.5 c 128,-1,9
 1278 610 1278 610 1278 716 c 0,10,11
 1278 921 1278 921 1140.5 1057.5 c 128,-1,12
 1003 1194 1003 1194 755.5 1194 c 128,-1,13
 508 1194 508 1194 340 1022.5 c 128,-1,14
 172 851 172 851 172 590.5 c 128,-1,15
 172 330 172 330 332 178 c 128,-1,16
 492 26 492 26 756.5 26 c 128,-1,17
 1021 26 1021 26 1174 133 c 1,18,-1
 1211 83 l 1,19,20
 1044 -43 1044 -43 783 -43 c 0,21,22
 335 -43 335 -43 159 281 c 0,23,24
 84 419 84 419 84 545 c 0,25,26
 84 969 84 969 404 1168 c 0,27,28
 560 1265 560 1265 744 1265 c 0,29,30
 1063 1265 1063 1265 1210 1109 c 128,-1,31
 1357 953 1357 953 1357 751.5 c 128,-1,32
 1357 550 1357 550 1240.5 401 c 128,-1,33
 1124 252 1124 252 983 252 c 0,34,35
 922 252 922 252 897 322 c 0,36,37
 888 347 888 347 888 377.5 c 128,-1,38
 888 408 888 408 891 424 c 1,39,40
 776 252 776 252 629 252 c 0,41,42
 527 252 527 252 474 310 c 0,43,44
 377 417 377 417 377 571.5 c 128,-1,45
 377 726 377 726 470.5 854.5 c 128,-1,46
 564 983 564 983 729 983 c 128,-1,47
 894 983 894 983 964 840 c 1,0,-1
866.5 854.5 m 128,-1,49
 812 913 812 913 737 913 c 0,50,51
 609 913 609 913 540 803 c 128,-1,52
 471 693 471 693 471 574.5 c 128,-1,53
 471 456 471 456 521 387 c 128,-1,54
 571 318 571 318 644 318 c 0,55,56
 766 318 766 318 843.5 439 c 128,-1,57
 921 560 921 560 921 678 c 128,-1,48
 921 796 921 796 866.5 854.5 c 128,-1,49
EndSplineSet
EndChar

StartChar: A
Encoding: 65 65 53
Width: 1321
GlyphClass: 2
Flags: W
LayerCount: 2
Fore
SplineSet
872 1234 m 1,0,-1
 872 1171 l 1,1,-1
 715 1171 l 1,2,-1
 1130 62 l 1,3,-1
 1288 62 l 1,4,-1
 1288 0 l 1,5,-1
 885 0 l 1,6,-1
 885 62 l 1,7,-1
 1044 62 l 1,8,-1
 884 503 l 1,9,-1
 409 503 l 1,10,-1
 249 62 l 1,11,-1
 408 62 l 1,12,-1
 408 0 l 1,13,-1
 4 0 l 1,14,-1
 4 62 l 1,15,-1
 163 62 l 1,16,-1
 579 1171 l 1,17,-1
 421 1171 l 1,18,-1
 421 1234 l 1,19,-1
 872 1234 l 1,0,-1
430 564 m 1,20,-1
 861 564 l 1,21,-1
 646 1153 l 1,22,-1
 430 564 l 1,20,-1
EndSplineSet
EndChar

StartChar: B
Encoding: 66 66 54
Width: 1233
GlyphClass: 2
Flags: W
LayerCount: 2
Fore
SplineSet
1111 931 m 0,0,1
 1111 744 1111 744 940 654 c 1,2,3
 1118 604 1118 604 1168 436 c 0,4,5
 1182 386 1182 386 1183 331 c 1,6,7
 1183 201 1183 201 1086.5 100.5 c 128,-1,8
 990 0 990 0 820 0 c 2,9,-1
 101 0 l 1,10,-1
 101 62 l 1,11,-1
 254 62 l 1,12,-1
 254 1171 l 1,13,-1
 88 1171 l 1,14,-1
 88 1234 l 1,15,-1
 748 1234 l 2,16,17
 919 1234 919 1234 1015 1143.5 c 128,-1,18
 1111 1053 1111 1053 1111 931 c 0,0,1
820 62 m 2,19,20
 953 62 953 62 1028 144 c 128,-1,21
 1103 226 1103 226 1103 337 c 128,-1,22
 1103 448 1103 448 1023.5 530.5 c 128,-1,23
 944 613 944 613 805 613 c 2,24,-1
 335 613 l 1,25,-1
 335 62 l 1,26,-1
 820 62 l 2,19,20
335 678 m 1,27,-1
 796 678 l 2,28,29
 963 678 963 678 1016 836 c 0,30,31
 1031 881 1031 881 1031 954.5 c 128,-1,32
 1031 1028 1031 1028 956.5 1099.5 c 128,-1,33
 882 1171 882 1171 748 1171 c 2,34,-1
 335 1171 l 1,35,-1
 335 678 l 1,27,-1
EndSplineSet
EndChar

StartChar: C
Encoding: 67 67 55
Width: 1341
GlyphClass: 2
Flags: W
LayerCount: 2
Fore
SplineSet
1275 283 m 1,0,1
 1097 -23 1097 -23 701 -23 c 0,2,3
 457 -23 457 -23 267.5 144.5 c 128,-1,4
 78 312 78 312 78 601.5 c 128,-1,5
 78 891 78 891 257 1073 c 128,-1,6
 436 1255 436 1255 731.5 1255 c 128,-1,7
 1027 1255 1027 1255 1191 1027 c 1,8,-1
 1191 1234 l 1,9,-1
 1266 1234 l 1,10,-1
 1266 887 l 1,11,-1
 1204 874 l 1,12,13
 1112 1082 1112 1082 888 1156 c 0,14,15
 810 1182 810 1182 698 1182 c 0,16,17
 465 1182 465 1182 313.5 1016.5 c 128,-1,18
 162 851 162 851 162 617.5 c 128,-1,19
 162 384 162 384 306 216 c 128,-1,20
 450 48 450 48 718 48 c 0,21,22
 1052 48 1052 48 1206 334 c 1,23,-1
 1275 283 l 1,0,1
EndSplineSet
EndChar

StartChar: D
Encoding: 68 68 56
Width: 1409
GlyphClass: 2
Flags: W
LayerCount: 2
Fore
SplineSet
793 1234 m 2,0,1
 1136 1234 1136 1234 1278 912 c 0,2,3
 1338 775 1338 775 1338 637 c 0,4,5
 1338 364 1338 364 1194 182 c 128,-1,6
 1050 0 1050 0 793 0 c 2,7,-1
 100 0 l 1,8,-1
 100 62 l 1,9,-1
 266 62 l 1,10,-1
 266 1171 l 1,11,-1
 100 1171 l 1,12,-1
 100 1234 l 1,13,-1
 793 1234 l 2,0,1
348 1171 m 1,14,-1
 348 62 l 1,15,-1
 792 62 l 2,16,17
 1012 62 1012 62 1133 226 c 128,-1,18
 1254 390 1254 390 1254 616 c 0,19,20
 1254 934 1254 934 1049 1088 c 0,21,22
 940 1170 940 1170 792 1171 c 1,23,-1
 348 1171 l 1,14,-1
EndSplineSet
EndChar

StartChar: E
Encoding: 69 69 57
Width: 1249
GlyphClass: 2
Flags: W
LayerCount: 2
Fore
SplineSet
355 1164 m 1,0,-1
 355 666 l 1,1,-1
 788 666 l 1,2,-1
 788 824 l 1,3,-1
 855 824 l 1,4,-1
 855 424 l 1,5,-1
 788 424 l 1,6,-1
 788 596 l 1,7,-1
 355 596 l 1,8,-1
 355 70 l 1,9,-1
 1040 70 l 1,10,-1
 1040 376 l 1,11,-1
 1117 376 l 1,12,-1
 1117 0 l 1,13,-1
 98 0 l 1,14,-1
 98 70 l 1,15,-1
 273 70 l 1,16,-1
 273 1164 l 1,17,-1
 98 1164 l 1,18,-1
 98 1234 l 1,19,-1
 1095 1234 l 1,20,-1
 1095 858 l 1,21,-1
 1019 858 l 1,22,-1
 1019 1164 l 1,23,-1
 355 1164 l 1,0,-1
EndSplineSet
EndChar

StartChar: F
Encoding: 70 70 58
Width: 1137
GlyphClass: 2
Flags: W
LayerCount: 2
Fore
SplineSet
355 1164 m 1,0,-1
 355 643 l 1,1,-1
 848 643 l 1,2,-1
 848 817 l 1,3,-1
 915 817 l 1,4,-1
 915 404 l 1,5,-1
 848 404 l 1,6,-1
 848 577 l 1,7,-1
 355 577 l 1,8,-1
 355 70 l 1,9,-1
 557 70 l 1,10,-1
 557 0 l 1,11,-1
 98 0 l 1,12,-1
 98 70 l 1,13,-1
 273 70 l 1,14,-1
 273 1164 l 1,15,-1
 98 1164 l 1,16,-1
 98 1234 l 1,17,-1
 1103 1234 l 1,18,-1
 1103 858 l 1,19,-1
 1026 858 l 1,20,-1
 1026 1164 l 1,21,-1
 355 1164 l 1,0,-1
EndSplineSet
EndChar

StartChar: G
Encoding: 71 71 59
Width: 1356
GlyphClass: 2
Flags: W
LayerCount: 2
Fore
SplineSet
1180 898 m 1,0,1
 1048 1182 1048 1182 696 1182 c 0,2,3
 465 1182 465 1182 313.5 1016.5 c 128,-1,4
 162 851 162 851 162 616.5 c 128,-1,5
 162 382 162 382 306 215 c 128,-1,6
 450 48 450 48 719 48 c 0,7,8
 988 48 988 48 1124 238 c 0,9,10
 1206 352 1206 352 1210 523 c 1,11,-1
 945 523 l 1,12,-1
 945 589 l 1,13,-1
 1294 589 l 1,14,15
 1294 162 1294 162 975 28 c 0,16,17
 856 -22 856 -22 743 -23 c 1,18,19
 351 -23 351 -23 169 268 c 0,20,21
 78 414 78 414 78 652.5 c 128,-1,22
 78 891 78 891 257 1073 c 128,-1,23
 436 1255 436 1255 722.5 1255 c 128,-1,24
 1009 1255 1009 1255 1167 1051 c 1,25,-1
 1167 1234 l 1,26,-1
 1242 1234 l 1,27,-1
 1242 898 l 1,28,-1
 1180 898 l 1,0,1
EndSplineSet
EndChar

StartChar: H
Encoding: 72 72 60
Width: 1475
GlyphClass: 2
Flags: W
LayerCount: 2
Fore
SplineSet
1360 1234 m 1,0,-1
 1360 1171 l 1,1,-1
 1220 1171 l 1,2,-1
 1220 62 l 1,3,-1
 1360 62 l 1,4,-1
 1360 0 l 1,5,-1
 991 0 l 1,6,-1
 991 62 l 1,7,-1
 1139 62 l 1,8,-1
 1139 598 l 1,9,-1
 337 598 l 1,10,-1
 337 62 l 1,11,-1
 492 62 l 1,12,-1
 492 0 l 1,13,-1
 104 0 l 1,14,-1
 104 62 l 1,15,-1
 256 62 l 1,16,-1
 256 1171 l 1,17,-1
 104 1171 l 1,18,-1
 104 1234 l 1,19,-1
 492 1234 l 1,20,-1
 492 1171 l 1,21,-1
 337 1171 l 1,22,-1
 337 661 l 1,23,-1
 1139 661 l 1,24,-1
 1139 1171 l 1,25,-1
 991 1171 l 1,26,-1
 991 1234 l 1,27,-1
 1360 1234 l 1,0,-1
EndSplineSet
EndChar

StartChar: I
Encoding: 73 73 61
Width: 612
GlyphClass: 2
Flags: W
LayerCount: 2
Fore
SplineSet
505 1234 m 1,0,-1
 505 1171 l 1,1,-1
 345 1171 l 1,2,-1
 345 62 l 1,3,-1
 505 62 l 1,4,-1
 505 0 l 1,5,-1
 102 0 l 1,6,-1
 102 62 l 1,7,-1
 263 62 l 1,8,-1
 263 1171 l 1,9,-1
 102 1171 l 1,10,-1
 102 1234 l 1,11,-1
 505 1234 l 1,0,-1
EndSplineSet
EndChar

StartChar: J
Encoding: 74 74 62
Width: 461
GlyphClass: 2
Flags: W
LayerCount: 2
Fore
SplineSet
181 1174 m 1,0,-1
 42 1174 l 1,1,-1
 42 1234 l 1,2,-1
 402 1234 l 1,3,-1
 402 1174 l 1,4,-1
 263 1174 l 1,5,-1
 263 60 l 1,6,7
 264 -91 264 -91 150 -99 c 0,8,9
 120 -101 120 -101 94 -101 c 2,10,-1
 23 -101 l 1,11,-1
 23 -41 l 1,12,-1
 107 -41 l 2,13,14
 159 -41 159 -41 170 -10.5 c 128,-1,15
 181 20 181 20 181 59 c 2,16,-1
 181 1174 l 1,0,-1
EndSplineSet
EndChar

StartChar: K
Encoding: 75 75 63
Width: 1317
GlyphClass: 2
Flags: W
LayerCount: 2
Fore
SplineSet
506 1234 m 1,0,-1
 506 1174 l 1,1,-1
 345 1174 l 1,2,-1
 345 642 l 1,3,-1
 941 1174 l 1,4,-1
 788 1174 l 1,5,-1
 788 1234 l 1,6,-1
 1220 1234 l 1,7,-1
 1220 1174 l 1,8,-1
 1047 1174 l 1,9,-1
 447 634 l 1,10,-1
 1107 60 l 1,11,-1
 1277 60 l 1,12,-1
 1277 0 l 1,13,-1
 822 0 l 1,14,-1
 822 60 l 1,15,-1
 989 60 l 1,16,-1
 345 625 l 1,17,-1
 345 60 l 1,18,-1
 506 60 l 1,19,-1
 506 0 l 1,20,-1
 102 0 l 1,21,-1
 102 60 l 1,22,-1
 263 60 l 1,23,-1
 263 1174 l 1,24,-1
 102 1174 l 1,25,-1
 102 1234 l 1,26,-1
 506 1234 l 1,0,-1
EndSplineSet
EndChar

StartChar: L
Encoding: 76 76 64
Width: 1149
GlyphClass: 2
Flags: W
LayerCount: 2
Fore
SplineSet
471 1234 m 1,0,-1
 471 1174 l 1,1,-1
 332 1174 l 1,2,-1
 332 70 l 1,3,-1
 960 70 l 1,4,-1
 960 412 l 1,5,-1
 1036 412 l 1,6,-1
 1036 0 l 1,7,-1
 111 0 l 1,8,-1
 111 70 l 1,9,-1
 250 70 l 1,10,-1
 250 1174 l 1,11,-1
 111 1174 l 1,12,-1
 111 1234 l 1,13,-1
 471 1234 l 1,0,-1
EndSplineSet
EndChar

StartChar: M
Encoding: 77 77 65
Width: 1663
GlyphClass: 2
Flags: W
LayerCount: 2
Fore
SplineSet
342 1088 m 1,0,-1
 342 62 l 1,1,-1
 503 62 l 1,2,-1
 503 0 l 1,3,-1
 102 0 l 1,4,-1
 102 62 l 1,5,-1
 263 62 l 1,6,-1
 263 1171 l 1,7,-1
 102 1171 l 1,8,-1
 102 1234 l 1,9,-1
 358 1234 l 1,10,-1
 839 239 l 1,11,-1
 1300 1234 l 1,12,-1
 1556 1234 l 1,13,-1
 1556 1171 l 1,14,-1
 1395 1171 l 1,15,-1
 1395 62 l 1,16,-1
 1556 62 l 1,17,-1
 1556 0 l 1,18,-1
 1155 0 l 1,19,-1
 1155 62 l 1,20,-1
 1316 62 l 1,21,-1
 1316 1088 l 1,22,-1
 839 78 l 1,23,-1
 342 1088 l 1,0,-1
EndSplineSet
EndChar

StartChar: N
Encoding: 78 78 66
Width: 1473
GlyphClass: 2
Flags: W
LayerCount: 2
Fore
SplineSet
342 1234 m 1,0,-1
 1186 125 l 1,1,-1
 1186 1171 l 1,2,-1
 1025 1171 l 1,3,-1
 1025 1234 l 1,4,-1
 1426 1234 l 1,5,-1
 1426 1171 l 1,6,-1
 1265 1171 l 1,7,-1
 1265 0 l 1,8,-1
 1186 0 l 1,9,-1
 342 1114 l 1,10,-1
 342 62 l 1,11,-1
 503 62 l 1,12,-1
 503 0 l 1,13,-1
 102 0 l 1,14,-1
 102 62 l 1,15,-1
 263 62 l 1,16,-1
 263 1171 l 1,17,-1
 102 1171 l 1,18,-1
 102 1234 l 1,19,-1
 342 1234 l 1,0,-1
EndSplineSet
EndChar

StartChar: O
Encoding: 79 79 67
Width: 1427
GlyphClass: 2
Flags: W
LayerCount: 2
Fore
SplineSet
415 1101 m 128,-1,1
 289 1020 289 1020 225.5 890 c 128,-1,2
 162 760 162 760 162 633 c 0,3,4
 162 381 162 381 307.5 214.5 c 128,-1,5
 453 48 453 48 718 48 c 0,6,7
 1064 48 1064 48 1212 342 c 1,8,9
 1274 468 1274 468 1274 576 c 0,10,11
 1274 939 1274 939 1019 1101 c 0,12,13
 892 1182 892 1182 716.5 1182 c 128,-1,0
 541 1182 541 1182 415 1101 c 128,-1,1
718 -23 m 256,14,15
 415 -23 415 -23 246.5 165.5 c 128,-1,16
 78 354 78 354 78 612.5 c 128,-1,17
 78 871 78 871 246.5 1063 c 128,-1,18
 415 1255 415 1255 718 1255 c 256,19,20
 1120 1255 1120 1255 1286 922 c 0,21,22
 1358 779 1358 779 1358 636 c 0,23,24
 1358 354 1358 354 1189.5 165.5 c 128,-1,25
 1021 -23 1021 -23 718 -23 c 256,14,15
EndSplineSet
EndChar

StartChar: P
Encoding: 80 80 68
Width: 1184
GlyphClass: 2
Flags: W
LayerCount: 2
Fore
SplineSet
101 62 m 1,0,-1
 254 62 l 1,1,-1
 254 1171 l 1,2,-1
 88 1171 l 1,3,-1
 88 1234 l 1,4,-1
 769 1234 l 2,5,6
 940 1234 940 1234 1035.5 1129 c 128,-1,7
 1131 1024 1131 1024 1131 880.5 c 128,-1,8
 1131 737 1131 737 1035.5 627 c 128,-1,9
 940 517 940 517 769 517 c 2,10,-1
 335 517 l 1,11,-1
 335 62 l 1,12,-1
 505 62 l 1,13,-1
 505 0 l 1,14,-1
 101 0 l 1,15,-1
 101 62 l 1,0,-1
335 582 m 1,16,-1
 769 582 l 2,17,18
 902 582 902 582 977 671 c 128,-1,19
 1052 760 1052 760 1052 880 c 128,-1,20
 1052 1000 1052 1000 977 1085.5 c 128,-1,21
 902 1171 902 1171 769 1171 c 2,22,-1
 335 1171 l 1,23,-1
 335 582 l 1,16,-1
EndSplineSet
EndChar

StartChar: Q
Encoding: 81 81 69
Width: 1425
GlyphClass: 2
Flags: W
LayerCount: 2
Fore
SplineSet
422 38 m 1,0,1
 78 198 78 198 78 652 c 0,2,3
 78 779 78 779 151.5 926 c 128,-1,4
 225 1073 225 1073 370 1164 c 128,-1,5
 515 1255 515 1255 718 1255 c 256,6,7
 1120 1255 1120 1255 1286 922 c 1,8,9
 1358 780 1358 780 1358 640 c 0,10,11
 1358 373 1358 373 1209.5 189.5 c 128,-1,12
 1061 6 1061 6 794 -19 c 1,13,14
 951 -108 951 -108 1029.5 -108 c 128,-1,15
 1108 -108 1108 -108 1167 -84 c 1,16,-1
 1192 -157 l 1,17,18
 1114 -181 1114 -181 1053.5 -181 c 128,-1,19
 993 -181 993 -181 948.5 -168.5 c 128,-1,20
 904 -156 904 -156 864 -137.5 c 128,-1,21
 824 -119 824 -119 786.5 -97 c 128,-1,22
 749 -75 749 -75 712.5 -56.5 c 128,-1,23
 676 -38 676 -38 639.5 -25.5 c 128,-1,24
 603 -13 603 -13 520.5 -13 c 128,-1,25
 438 -13 438 -13 303 -78 c 1,26,-1
 285 -7 l 1,27,28
 358 23 358 23 422 38 c 1,0,1
415 1101 m 128,-1,30
 289 1020 289 1020 225.5 890 c 128,-1,31
 162 760 162 760 162 633 c 0,32,33
 162 381 162 381 307.5 214.5 c 128,-1,34
 453 48 453 48 718 48 c 0,35,36
 1064 48 1064 48 1212 342 c 1,37,38
 1274 468 1274 468 1274 576 c 0,39,40
 1274 939 1274 939 1019 1101 c 0,41,42
 892 1182 892 1182 716.5 1182 c 128,-1,29
 541 1182 541 1182 415 1101 c 128,-1,30
EndSplineSet
EndChar

StartChar: R
Encoding: 82 82 70
Width: 1274
GlyphClass: 2
Flags: W
LayerCount: 2
Fore
SplineSet
101 62 m 1,0,-1
 254 62 l 1,1,-1
 254 1171 l 1,2,-1
 88 1171 l 1,3,-1
 88 1234 l 1,4,-1
 728 1234 l 2,5,6
 899 1234 899 1234 994.5 1136.5 c 128,-1,7
 1090 1039 1090 1039 1090 907 c 256,8,9
 1090 775 1090 775 994.5 676 c 128,-1,10
 899 577 899 577 728 577 c 2,11,-1
 727 577 l 1,12,-1
 1043 62 l 1,13,-1
 1217 62 l 1,14,-1
 1217 0 l 1,15,-1
 985 0 l 1,16,-1
 643 577 l 1,17,-1
 335 577 l 1,18,-1
 335 62 l 1,19,-1
 505 62 l 1,20,-1
 505 0 l 1,21,-1
 101 0 l 1,22,-1
 101 62 l 1,0,-1
335 642 m 1,23,-1
 728 642 l 2,24,25
 929 642 929 642 993 808 c 0,26,27
 1011 855 1011 855 1011 934.5 c 128,-1,28
 1011 1014 1011 1014 936.5 1092.5 c 128,-1,29
 862 1171 862 1171 728 1171 c 2,30,-1
 335 1171 l 1,31,-1
 335 642 l 1,23,-1
EndSplineSet
EndChar

StartChar: S
Encoding: 83 83 71
Width: 1106
GlyphClass: 2
Flags: W
LayerCount: 2
Fore
SplineSet
565 1182 m 0,0,1
 234 1182 234 1182 234 904 c 0,2,3
 234 777 234 777 321 731.5 c 128,-1,4
 408 686 408 686 608.5 666 c 128,-1,5
 809 646 809 646 929 572.5 c 128,-1,6
 1049 499 1049 499 1049 346.5 c 128,-1,7
 1049 194 1049 194 948 85.5 c 128,-1,8
 847 -23 847 -23 635.5 -23 c 128,-1,9
 424 -23 424 -23 231 112 c 1,10,-1
 231 0 l 1,11,-1
 152 0 l 1,12,-1
 152 416 l 1,13,-1
 231 416 l 1,14,-1
 231 196 l 1,15,16
 426 52 426 52 647 52 c 128,-1,17
 868 52 868 52 940 220 c 0,18,19
 960 268 960 268 960 333 c 0,20,21
 960 462 960 462 868 517.5 c 128,-1,22
 776 573 776 573 565 594 c 128,-1,23
 354 615 354 615 248.5 685 c 128,-1,24
 143 755 143 755 143 918 c 128,-1,25
 143 1081 143 1081 261.5 1168 c 128,-1,26
 380 1255 380 1255 552.5 1255 c 128,-1,27
 725 1255 725 1255 899 1163 c 1,28,-1
 899 1234 l 1,29,-1
 978 1234 l 1,30,-1
 978 899 l 1,31,-1
 899 899 l 1,32,-1
 899 1080 l 1,33,34
 746 1182 746 1182 565 1182 c 0,0,1
EndSplineSet
EndChar

StartChar: T
Encoding: 84 84 72
Width: 1071
GlyphClass: 2
Flags: W
LayerCount: 2
Fore
SplineSet
1073 1234 m 1,0,-1
 1073 842 l 1,1,-1
 996 842 l 1,2,-1
 996 1164 l 1,3,-1
 566 1164 l 1,4,-1
 566 60 l 1,5,-1
 742 60 l 1,6,-1
 742 0 l 1,7,-1
 310 0 l 1,8,-1
 310 60 l 1,9,-1
 485 60 l 1,10,-1
 485 1164 l 1,11,-1
 62 1164 l 1,12,-1
 62 842 l 1,13,-1
 -14 842 l 1,14,-1
 -14 1234 l 1,15,-1
 1073 1234 l 1,0,-1
EndSplineSet
EndChar

StartChar: U
Encoding: 85 85 73
Width: 1421
GlyphClass: 2
Flags: W
LayerCount: 2
Fore
SplineSet
1142 1171 m 1,0,-1
 981 1171 l 1,1,-1
 981 1234 l 1,2,-1
 1384 1234 l 1,3,-1
 1384 1171 l 1,4,-1
 1224 1171 l 1,5,-1
 1224 404 l 2,6,7
 1224 203 1224 203 1062.5 90 c 128,-1,8
 901 -23 901 -23 686 -23 c 128,-1,9
 471 -23 471 -23 317 89 c 128,-1,10
 163 201 163 201 163 404 c 2,11,-1
 163 1171 l 1,12,-1
 2 1171 l 1,13,-1
 2 1234 l 1,14,-1
 405 1234 l 1,15,-1
 405 1171 l 1,16,-1
 244 1171 l 1,17,-1
 244 406 l 2,18,19
 244 235 244 235 373.5 141.5 c 128,-1,20
 503 48 503 48 680 48 c 0,21,22
 981 48 981 48 1102 250 c 0,23,24
 1142 317 1142 317 1142 406 c 2,25,-1
 1142 1171 l 1,0,-1
EndSplineSet
EndChar

StartChar: V
Encoding: 86 86 74
Width: 1159
GlyphClass: 2
Flags: W
LayerCount: 2
Fore
SplineSet
516 0 m 1,0,-1
 76 1171 l 1,1,-1
 -82 1171 l 1,2,-1
 -82 1234 l 1,3,-1
 321 1234 l 1,4,-1
 321 1171 l 1,5,-1
 164 1171 l 1,6,-1
 560 100 l 1,7,-1
 952 1171 l 1,8,-1
 799 1171 l 1,9,-1
 799 1234 l 1,10,-1
 1202 1234 l 1,11,-1
 1202 1171 l 1,12,-1
 1046 1171 l 1,13,-1
 602 0 l 1,14,-1
 516 0 l 1,0,-1
EndSplineSet
EndChar

StartChar: W
Encoding: 87 87 75
Width: 1827
GlyphClass: 2
Flags: W
LayerCount: 2
Fore
SplineSet
1239 0 m 1,0,-1
 893 1044 l 1,1,-1
 560 0 l 1,2,-1
 471 0 l 1,3,-1
 80 1171 l 1,4,-1
 -78 1171 l 1,5,-1
 -78 1234 l 1,6,-1
 325 1234 l 1,7,-1
 325 1171 l 1,8,-1
 168 1171 l 1,9,-1
 516 100 l 1,10,-1
 848 1171 l 1,11,-1
 695 1171 l 1,12,-1
 695 1234 l 1,13,-1
 1093 1234 l 1,14,-1
 1093 1171 l 1,15,-1
 936 1171 l 1,16,-1
 1284 100 l 1,17,-1
 1616 1171 l 1,18,-1
 1463 1171 l 1,19,-1
 1463 1234 l 1,20,-1
 1862 1234 l 1,21,-1
 1862 1171 l 1,22,-1
 1706 1171 l 1,23,-1
 1326 0 l 1,24,-1
 1239 0 l 1,0,-1
EndSplineSet
EndChar

StartChar: X
Encoding: 88 88 76
Width: 1270
GlyphClass: 2
Flags: W
LayerCount: 2
Fore
SplineSet
470 1234 m 1,0,-1
 470 1171 l 1,1,-1
 310 1171 l 1,2,-1
 629 695 l 1,3,-1
 947 1171 l 1,4,-1
 787 1171 l 1,5,-1
 787 1234 l 1,6,-1
 1190 1234 l 1,7,-1
 1190 1171 l 1,8,-1
 1032 1171 l 1,9,-1
 673 629 l 1,10,-1
 1054 62 l 1,11,-1
 1214 62 l 1,12,-1
 1214 0 l 1,13,-1
 811 0 l 1,14,-1
 811 62 l 1,15,-1
 972 62 l 1,16,-1
 632 568 l 1,17,-1
 298 62 l 1,18,-1
 458 62 l 1,19,-1
 458 0 l 1,20,-1
 55 0 l 1,21,-1
 55 62 l 1,22,-1
 209 62 l 1,23,-1
 588 634 l 1,24,-1
 228 1171 l 1,25,-1
 67 1171 l 1,26,-1
 67 1234 l 1,27,-1
 470 1234 l 1,0,-1
EndSplineSet
EndChar

StartChar: Y
Encoding: 89 89 77
Width: 1141
GlyphClass: 2
Flags: W
LayerCount: 2
Fore
SplineSet
-88 1171 m 1,0,-1
 -88 1234 l 1,1,-1
 315 1234 l 1,2,-1
 315 1171 l 1,3,-1
 158 1171 l 1,4,-1
 555 508 l 1,5,-1
 945 1171 l 1,6,-1
 786 1171 l 1,7,-1
 786 1234 l 1,8,-1
 1189 1234 l 1,9,-1
 1189 1171 l 1,10,-1
 1033 1171 l 1,11,-1
 594 436 l 1,12,-1
 594 62 l 1,13,-1
 754 62 l 1,14,-1
 754 0 l 1,15,-1
 351 0 l 1,16,-1
 351 62 l 1,17,-1
 512 62 l 1,18,-1
 512 436 l 1,19,-1
 70 1171 l 1,20,-1
 -88 1171 l 1,0,-1
EndSplineSet
EndChar

StartChar: Z
Encoding: 90 90 78
Width: 1229
GlyphClass: 2
Flags: W
LayerCount: 2
Fore
SplineSet
185 70 m 1,0,-1
 1027 70 l 1,1,-1
 1027 376 l 1,2,-1
 1104 376 l 1,3,-1
 1104 0 l 1,4,-1
 102 0 l 1,5,-1
 102 96 l 1,6,-1
 979 1164 l 1,7,-1
 198 1164 l 1,8,-1
 198 870 l 1,9,-1
 121 870 l 1,10,-1
 121 1234 l 1,11,-1
 1068 1234 l 1,12,-1
 1068 1153 l 1,13,-1
 185 70 l 1,0,-1
EndSplineSet
EndChar

StartChar: bracketleft
Encoding: 91 91 79
Width: 518
GlyphClass: 2
Flags: W
LayerCount: 2
Fore
SplineSet
420 1255 m 1,0,-1
 420 1193 l 1,1,-1
 260 1193 l 1,2,-1
 260 40 l 1,3,-1
 420 40 l 1,4,-1
 420 -23 l 1,5,-1
 178 -23 l 1,6,-1
 178 1255 l 1,7,-1
 420 1255 l 1,0,-1
EndSplineSet
EndChar

StartChar: backslash
Encoding: 92 92 80
Width: 535
GlyphClass: 2
Flags: W
LayerCount: 2
Fore
SplineSet
496 -23 m 1,0,-1
 420 -23 l 1,1,-1
 53 1255 l 1,2,-1
 124 1255 l 1,3,-1
 496 -23 l 1,0,-1
EndSplineSet
EndChar

StartChar: bracketright
Encoding: 93 93 81
Width: 522
GlyphClass: 2
Flags: W
LayerCount: 2
Fore
SplineSet
342 1255 m 1,0,-1
 342 -23 l 1,1,-1
 100 -23 l 1,2,-1
 100 40 l 1,3,-1
 261 40 l 1,4,-1
 261 1193 l 1,5,-1
 100 1193 l 1,6,-1
 100 1255 l 1,7,-1
 342 1255 l 1,0,-1
EndSplineSet
EndChar

StartChar: asciicircum
Encoding: 94 94 82
Width: 891
GlyphClass: 2
Flags: W
LayerCount: 2
Fore
SplineSet
822 761 m 1,0,-1
 750 761 l 1,1,-1
 449 1186 l 1,2,-1
 135 761 l 1,3,-1
 61 761 l 1,4,-1
 407 1255 l 1,5,-1
 492 1255 l 1,6,-1
 822 761 l 1,0,-1
EndSplineSet
EndChar

StartChar: underscore
Encoding: 95 95 83
Width: 1016
GlyphClass: 2
Flags: W
LayerCount: 2
Fore
SplineSet
871 -62 m 1,0,-1
 139 -62 l 1,1,-1
 139 0 l 1,2,-1
 871 0 l 1,3,-1
 871 -62 l 1,0,-1
EndSplineSet
EndChar

StartChar: grave
Encoding: 96 96 84
Width: 420
GlyphClass: 2
Flags: W
LayerCount: 2
Fore
SplineSet
261 985 m 1,0,-1
 104 1234 l 1,1,-1
 231 1234 l 1,2,-1
 292 985 l 1,3,-1
 261 985 l 1,0,-1
EndSplineSet
EndChar

StartChar: a
Encoding: 97 97 85
Width: 981
GlyphClass: 2
Flags: W
LayerCount: 2
Fore
SplineSet
674 95 m 1,0,1
 525 -14 525 -14 341.5 -14 c 0,2,3
 158 -14 158 -14 98 138 c 0,4,5
 80 182 80 182 80 248 c 0,6,7
 80 474 80 474 401 475 c 0,8,9
 527 475 527 475 674 446 c 1,10,-1
 674 575 l 2,11,12
 674 787 674 787 436 787 c 0,13,14
 246 787 246 787 156 696 c 1,15,-1
 120 755 l 1,16,17
 223 854 223 854 457.5 854 c 128,-1,18
 692 854 692 854 741 679 c 0,19,20
 754 633 754 633 754 593 c 2,21,-1
 754 60 l 1,22,-1
 907 60 l 1,23,-1
 907 0 l 1,24,-1
 690 0 l 1,25,-1
 674 95 l 1,0,1
376 53 m 0,26,27
 560 53 560 53 674 158 c 1,28,-1
 674 384 l 1,29,30
 544 410 544 410 430 410 c 128,-1,31
 316 410 316 410 260 388 c 0,32,33
 161 350 161 350 161 231.5 c 128,-1,34
 161 113 161 113 274 69 c 0,35,36
 315 53 315 53 376 53 c 0,26,27
EndSplineSet
EndChar

StartChar: b
Encoding: 98 98 86
Width: 1169
GlyphClass: 2
Flags: W
LayerCount: 2
Fore
SplineSet
338 1234 m 1,0,-1
 338 695 l 1,1,2
 473 854 473 854 686.5 854 c 128,-1,3
 900 854 900 854 1018 728.5 c 128,-1,4
 1136 603 1136 603 1136 434 c 0,5,6
 1136 186 1136 186 943 51 c 128,-1,7
 750 -84 750 -84 475 36 c 0,8,9
 381 77 381 77 338 125 c 1,10,11
 334 93 334 93 331 62 c 128,-1,12
 328 31 328 31 325 0 c 1,13,-1
 94 0 l 1,14,-1
 94 60 l 1,15,-1
 259 60 l 1,16,-1
 259 1174 l 1,17,-1
 110 1174 l 1,18,-1
 110 1234 l 1,19,-1
 338 1234 l 1,0,-1
338 193 m 1,20,21
 518 53 518 53 694.5 53 c 128,-1,22
 871 53 871 53 964 165 c 128,-1,23
 1057 277 1057 277 1057 388 c 0,24,25
 1057 580 1057 580 959 683.5 c 128,-1,26
 861 787 861 787 682 787 c 128,-1,27
 503 787 503 787 338 619 c 1,28,-1
 338 193 l 1,20,21
EndSplineSet
EndChar

StartChar: c
Encoding: 99 99 87
Width: 936
GlyphClass: 2
Flags: W
LayerCount: 2
Fore
SplineSet
867 149 m 1,0,1
 704 -14 704 -14 510.5 -13 c 128,-1,2
 317 -12 317 -12 187 108.5 c 128,-1,3
 57 229 57 229 57 418.5 c 128,-1,4
 57 608 57 608 176.5 729 c 128,-1,5
 296 850 296 850 497.5 852.5 c 128,-1,6
 699 855 699 855 762 750 c 1,7,-1
 762 860 l 1,8,-1
 838 860 l 1,9,-1
 838 600 l 1,10,-1
 772 600 l 1,11,12
 760 726 760 726 624 770 c 0,13,14
 574 786 574 786 502 787 c 1,15,16
 351 787 351 787 245 689.5 c 128,-1,17
 139 592 139 592 139 422.5 c 128,-1,18
 139 253 139 253 246 154.5 c 128,-1,19
 353 56 353 56 500 54 c 1,20,21
 716 54 716 54 844 222 c 1,22,-1
 867 149 l 1,0,1
EndSplineSet
EndChar

StartChar: d
Encoding: 100 100 88
Width: 1165
GlyphClass: 2
Flags: W
LayerCount: 2
Fore
SplineSet
845 125 m 1,0,1
 720 -14 720 -14 439 -14 c 0,2,3
 333 -14 333 -14 235 54.5 c 128,-1,4
 137 123 137 123 92 224.5 c 128,-1,5
 47 326 47 326 47 420 c 0,6,7
 47 604 47 604 165 729 c 128,-1,8
 283 854 283 854 496.5 854 c 128,-1,9
 710 854 710 854 845 695 c 1,10,-1
 845 1174 l 1,11,-1
 641 1174 l 1,12,-1
 641 1234 l 1,13,-1
 924 1234 l 1,14,-1
 924 60 l 1,15,-1
 1089 60 l 1,16,-1
 1089 0 l 1,17,-1
 858 0 l 1,18,-1
 845 125 l 1,0,1
480 53 m 0,19,20
 665 53 665 53 845 193 c 1,21,-1
 845 619 l 1,22,23
 680 787 680 787 501 787 c 128,-1,24
 322 787 322 787 224 683.5 c 128,-1,25
 126 580 126 580 126 426 c 0,26,27
 126 184 126 184 324 86 c 0,28,29
 390 53 390 53 480 53 c 0,19,20
EndSplineSet
EndChar

StartChar: e
Encoding: 101 101 89
Width: 934
GlyphClass: 2
Flags: W
LayerCount: 2
Fore
SplineSet
867 149 m 1,0,1
 695 -14 695 -14 501 -14 c 128,-1,2
 307 -14 307 -14 182 109.5 c 128,-1,3
 57 233 57 233 57 414.5 c 128,-1,4
 57 596 57 596 175.5 725 c 128,-1,5
 294 854 294 854 487.5 854 c 128,-1,6
 681 854 681 854 785.5 723 c 128,-1,7
 890 592 890 592 890 400 c 1,8,-1
 139 400 l 1,9,10
 156 149 156 149 362 74 c 0,11,12
 422 52 422 52 488 52 c 0,13,14
 690 52 690 52 834 204 c 1,15,-1
 867 149 l 1,0,1
812 466 m 1,16,17
 791 680 791 680 629 760 c 0,18,19
 574 787 574 787 496 787 c 0,20,21
 340 787 340 787 244 691 c 128,-1,22
 148 595 148 595 141 466 c 1,23,-1
 812 466 l 1,16,17
EndSplineSet
EndChar

StartChar: f
Encoding: 102 102 90
Width: 643
GlyphClass: 2
Flags: W
LayerCount: 2
Fore
SplineSet
509 1066 m 1,0,1
 509 1172 509 1172 428 1172 c 0,2,3
 394 1172 394 1172 367 1143 c 128,-1,4
 340 1114 340 1114 340 1066 c 2,5,-1
 340 836 l 1,6,-1
 543 836 l 1,7,-1
 543 779 l 1,8,-1
 340 779 l 1,9,-1
 340 60 l 1,10,-1
 531 60 l 1,11,-1
 531 0 l 1,12,-1
 106 0 l 1,13,-1
 106 60 l 1,14,-1
 261 60 l 1,15,-1
 261 779 l 1,16,-1
 106 779 l 1,17,-1
 106 836 l 1,18,-1
 261 836 l 1,19,-1
 261 1064 l 2,20,21
 261 1184 261 1184 367 1223 c 0,22,23
 397 1234 397 1234 444 1234 c 128,-1,24
 491 1234 491 1234 536.5 1190.5 c 128,-1,25
 582 1147 582 1147 584 1066 c 1,26,-1
 509 1066 l 1,0,1
EndSplineSet
EndChar

StartChar: g
Encoding: 103 103 91
Width: 1110
GlyphClass: 2
Flags: W
LayerCount: 2
Fore
SplineSet
831 120 m 1,0,1
 702 -14 702 -14 494 -14 c 128,-1,2
 286 -14 286 -14 171.5 115 c 128,-1,3
 57 244 57 244 57 414 c 128,-1,4
 57 584 57 584 163.5 719 c 128,-1,5
 270 854 270 854 458 854 c 0,6,7
 646 854 646 854 780 758 c 0,8,9
 814 734 814 734 831 715 c 1,10,-1
 844 840 l 1,11,-1
 1074 840 l 1,12,-1
 1074 780 l 1,13,-1
 910 780 l 1,14,-1
 910 29 l 2,15,16
 910 -204 910 -204 717 -272 c 0,17,18
 606 -311 606 -311 477.5 -314 c 128,-1,19
 349 -317 349 -317 261 -317 c 1,20,-1
 261 -248 l 1,21,-1
 410 -248 l 2,22,23
 659 -248 659 -248 745 -182 c 128,-1,24
 831 -116 831 -116 831 12 c 2,25,-1
 831 120 l 1,0,1
831 647 m 1,26,27
 654 787 654 787 483 787 c 128,-1,28
 312 787 312 787 224 676 c 128,-1,29
 136 565 136 565 137 452 c 0,30,31
 139 261 139 261 234.5 157 c 128,-1,32
 330 53 330 53 482 53 c 128,-1,33
 634 53 634 53 708 99.5 c 128,-1,34
 782 146 782 146 831 190 c 1,35,-1
 831 647 l 1,26,27
EndSplineSet
EndChar

StartChar: h
Encoding: 104 104 92
Width: 1198
GlyphClass: 2
Flags: W
LayerCount: 2
Fore
SplineSet
86 1176 m 1,0,-1
 86 1234 l 1,1,-1
 338 1234 l 1,2,-1
 338 736 l 1,3,4
 506 829 506 829 574.5 841.5 c 128,-1,5
 643 854 643 854 699 854 c 0,6,7
 833 854 833 854 896.5 783.5 c 128,-1,8
 960 713 960 713 960 617 c 2,9,-1
 960 60 l 1,10,-1
 1135 60 l 1,11,-1
 1135 0 l 1,12,-1
 723 0 l 1,13,-1
 723 60 l 1,14,-1
 881 60 l 1,15,-1
 881 601 l 2,16,17
 881 787 881 787 687 787 c 0,18,19
 561 787 561 787 419 709 c 0,20,21
 379 687 379 687 338 664 c 1,22,-1
 338 60 l 1,23,-1
 530 60 l 1,24,-1
 530 0 l 1,25,-1
 97 0 l 1,26,-1
 97 60 l 1,27,-1
 259 60 l 1,28,-1
 259 1176 l 1,29,-1
 86 1176 l 1,0,-1
EndSplineSet
EndChar

StartChar: i
Encoding: 105 105 93
Width: 582
GlyphClass: 2
Flags: W
LayerCount: 2
Fore
SplineSet
239 1148 m 0,0,1
 239 1205 239 1205 301 1205 c 256,2,3
 333 1205 333 1205 348.5 1187.5 c 128,-1,4
 364 1170 364 1170 364 1149 c 128,-1,5
 364 1128 364 1128 348 1110 c 128,-1,6
 332 1092 332 1092 300.5 1092 c 128,-1,7
 269 1092 269 1092 254 1110 c 128,-1,8
 239 1128 239 1128 239 1148 c 0,0,1
115 776 m 1,9,-1
 115 836 l 1,10,-1
 344 836 l 1,11,-1
 344 60 l 1,12,-1
 498 60 l 1,13,-1
 498 0 l 1,14,-1
 115 0 l 1,15,-1
 115 60 l 1,16,-1
 265 60 l 1,17,-1
 265 776 l 1,18,-1
 115 776 l 1,9,-1
EndSplineSet
EndChar

StartChar: j
Encoding: 106 106 94
Width: 408
GlyphClass: 2
Flags: W
LayerCount: 2
Fore
SplineSet
162 779 m 1,0,-1
 25 779 l 1,1,-1
 25 836 l 1,2,-1
 241 836 l 1,3,-1
 241 -22 l 1,4,5
 242 -145 242 -145 218 -186 c 0,6,7
 169 -271 169 -271 27 -271 c 2,8,-1
 -53 -271 l 1,9,-1
 -53 -211 l 1,10,-1
 25 -211 l 2,11,12
 119 -211 119 -211 140.5 -174 c 0,13,14
 162 -137 162 -137 162 -34 c 2,15,-1
 162 779 l 1,0,-1
130 1148 m 0,16,17
 130 1205 130 1205 192 1205 c 256,18,19
 254 1205 254 1205 254 1148 c 0,20,21
 254 1128 254 1128 238.5 1110 c 128,-1,22
 223 1092 223 1092 191.5 1092 c 128,-1,23
 160 1092 160 1092 145 1110 c 128,-1,24
 130 1128 130 1128 130 1148 c 0,16,17
EndSplineSet
EndChar

StartChar: k
Encoding: 107 107 95
Width: 1124
GlyphClass: 2
Flags: W
LayerCount: 2
Fore
SplineSet
94 1174 m 1,0,-1
 94 1234 l 1,1,-1
 359 1234 l 1,2,-1
 359 454 l 1,3,-1
 753 776 l 1,4,-1
 629 776 l 1,5,-1
 629 836 l 1,6,-1
 1014 836 l 1,7,-1
 1014 776 l 1,8,-1
 855 776 l 1,9,-1
 452 439 l 1,10,-1
 898 60 l 1,11,-1
 1049 60 l 1,12,-1
 1049 0 l 1,13,-1
 666 0 l 1,14,-1
 666 60 l 1,15,-1
 789 60 l 1,16,-1
 359 431 l 1,17,-1
 359 60 l 1,18,-1
 543 60 l 1,19,-1
 543 0 l 1,20,-1
 94 0 l 1,21,-1
 94 60 l 1,22,-1
 280 60 l 1,23,-1
 280 1174 l 1,24,-1
 94 1174 l 1,0,-1
EndSplineSet
EndChar

StartChar: l
Encoding: 108 108 96
Width: 612
GlyphClass: 2
Flags: W
LayerCount: 2
Fore
SplineSet
94 1174 m 1,0,-1
 94 1234 l 1,1,-1
 359 1234 l 1,2,-1
 359 60 l 1,3,-1
 543 60 l 1,4,-1
 543 0 l 1,5,-1
 94 0 l 1,6,-1
 94 60 l 1,7,-1
 280 60 l 1,8,-1
 280 1174 l 1,9,-1
 94 1174 l 1,0,-1
EndSplineSet
EndChar

StartChar: m
Encoding: 109 109 97
Width: 1659
GlyphClass: 2
Flags: W
LayerCount: 2
Fore
SplineSet
858 727 m 1,0,1
 1041 854 1041 854 1201 854 c 128,-1,2
 1361 854 1361 854 1401 700 c 0,3,4
 1412 658 1412 658 1412 617 c 2,5,-1
 1412 60 l 1,6,-1
 1588 60 l 1,7,-1
 1588 0 l 1,8,-1
 1176 0 l 1,9,-1
 1176 60 l 1,10,-1
 1333 60 l 1,11,-1
 1333 601 l 1,12,13
 1332 736 1332 736 1262 772 c 0,14,15
 1234 786 1234 786 1169 786.5 c 128,-1,16
 1104 787 1104 787 1041.5 758 c 128,-1,17
 979 729 979 729 875 664 c 1,18,19
 878 640 878 640 878 617 c 2,20,-1
 878 60 l 1,21,-1
 1054 60 l 1,22,-1
 1054 0 l 1,23,-1
 642 0 l 1,24,-1
 642 60 l 1,25,-1
 799 60 l 1,26,-1
 799 601 l 1,27,28
 798 736 798 736 728 772 c 0,29,30
 700 786 700 786 635 786.5 c 128,-1,31
 570 787 570 787 510.5 759 c 128,-1,32
 451 731 451 731 344 664 c 1,33,-1
 344 60 l 1,34,-1
 500 60 l 1,35,-1
 500 0 l 1,36,-1
 103 0 l 1,37,-1
 103 60 l 1,38,-1
 265 60 l 1,39,-1
 265 779 l 1,40,-1
 92 779 l 1,41,-1
 92 836 l 1,42,-1
 332 836 l 1,43,-1
 341 736 l 1,44,45
 489 829 489 829 552.5 841.5 c 128,-1,46
 616 854 616 854 661 854 c 0,47,48
 804 854 804 854 858 727 c 1,0,1
EndSplineSet
EndChar

StartChar: n
Encoding: 110 110 98
Width: 1202
GlyphClass: 2
Flags: W
LayerCount: 2
Fore
SplineSet
698 787 m 1,0,1
 531 787 531 787 361 668 c 1,2,-1
 361 60 l 1,3,-1
 543 60 l 1,4,-1
 543 0 l 1,5,-1
 100 0 l 1,6,-1
 100 60 l 1,7,-1
 281 60 l 1,8,-1
 281 779 l 1,9,-1
 101 779 l 1,10,-1
 101 836 l 1,11,-1
 349 836 l 1,12,-1
 357 736 l 1,13,14
 536 854 536 854 718 854 c 128,-1,15
 900 854 900 854 946 700 c 0,16,17
 958 658 958 658 958 617 c 2,18,-1
 958 60 l 1,19,-1
 1133 60 l 1,20,-1
 1133 0 l 1,21,-1
 722 0 l 1,22,-1
 722 60 l 1,23,-1
 879 60 l 1,24,-1
 879 601 l 1,25,26
 878 736 878 736 790 772 c 0,27,28
 754 786 754 786 698 787 c 1,0,1
EndSplineSet
EndChar

StartChar: o
Encoding: 111 111 99
Width: 1004
GlyphClass: 2
Flags: W
LayerCount: 2
Fore
SplineSet
767.5 690.5 m 128,-1,1
 656 787 656 787 507 787 c 128,-1,2
 358 787 358 787 248.5 690 c 128,-1,3
 139 593 139 593 139 421.5 c 128,-1,4
 139 250 139 250 248 151.5 c 128,-1,5
 357 53 357 53 507 53 c 128,-1,6
 657 53 657 53 768 151.5 c 128,-1,7
 879 250 879 250 879 422 c 128,-1,0
 879 594 879 594 767.5 690.5 c 128,-1,1
824 102 m 128,-1,9
 689 -14 689 -14 506.5 -14 c 128,-1,10
 324 -14 324 -14 190.5 102.5 c 128,-1,11
 57 219 57 219 57 422.5 c 128,-1,12
 57 626 57 626 190 740 c 128,-1,13
 323 854 323 854 506 854 c 128,-1,14
 689 854 689 854 824 740 c 128,-1,15
 959 626 959 626 959 422 c 128,-1,8
 959 218 959 218 824 102 c 128,-1,9
EndSplineSet
EndChar

StartChar: p
Encoding: 112 112 100
Width: 1120
GlyphClass: 2
Flags: W
LayerCount: 2
Fore
SplineSet
281 715 m 1,0,1
 443 854 443 854 687 854 c 0,2,3
 793 854 793 854 891 785.5 c 128,-1,4
 989 717 989 717 1034 615.5 c 128,-1,5
 1079 514 1079 514 1079 420 c 0,6,7
 1079 236 1079 236 961 111 c 128,-1,8
 843 -14 843 -14 629.5 -14 c 128,-1,9
 416 -14 416 -14 281 145 c 1,10,-1
 281 -262 l 1,11,-1
 428 -262 l 1,12,-1
 428 -322 l 1,13,-1
 53 -322 l 1,14,-1
 53 -262 l 1,15,-1
 202 -262 l 1,16,-1
 202 780 l 1,17,-1
 37 780 l 1,18,-1
 37 840 l 1,19,-1
 268 840 l 1,20,-1
 281 715 l 1,0,1
646 787 m 0,21,22
 461 787 461 787 281 647 c 1,23,-1
 281 221 l 1,24,25
 446 53 446 53 625 53 c 128,-1,26
 804 53 804 53 902 156.5 c 128,-1,27
 1000 260 1000 260 1000 414 c 0,28,29
 1000 656 1000 656 802 754 c 0,30,31
 736 787 736 787 646 787 c 0,21,22
EndSplineSet
EndChar

StartChar: q
Encoding: 113 113 101
Width: 1141
GlyphClass: 2
Flags: W
LayerCount: 2
Fore
SplineSet
855 97 m 1,0,1
 720 -14 720 -14 506.5 -14 c 128,-1,2
 293 -14 293 -14 175 111.5 c 128,-1,3
 57 237 57 237 57 406 c 0,4,5
 56 654 56 654 238 781 c 0,6,7
 342 854 342 854 473.5 854 c 128,-1,8
 605 854 605 854 708.5 808.5 c 128,-1,9
 812 763 812 763 855 715 c 1,10,-1
 869 840 l 1,11,-1
 1099 840 l 1,12,-1
 1099 780 l 1,13,-1
 935 780 l 1,14,-1
 935 -262 l 1,15,-1
 1083 -262 l 1,16,-1
 1083 -322 l 1,17,-1
 708 -322 l 1,18,-1
 708 -262 l 1,19,-1
 855 -262 l 1,20,-1
 855 97 l 1,0,1
855 647 m 1,21,22
 675 787 675 787 499 787 c 128,-1,23
 323 787 323 787 230 675 c 128,-1,24
 137 563 137 563 137 452 c 0,25,26
 137 261 137 261 234.5 157 c 128,-1,27
 332 53 332 53 519 53 c 128,-1,28
 706 53 706 53 855 163 c 1,29,-1
 855 647 l 1,21,22
EndSplineSet
EndChar

StartChar: r
Encoding: 114 114 102
Width: 748
GlyphClass: 2
Flags: W
LayerCount: 2
Fore
SplineSet
546 60 m 1,0,-1
 546 0 l 1,1,-1
 100 0 l 1,2,-1
 100 60 l 1,3,-1
 284 60 l 1,4,-1
 284 779 l 1,5,-1
 101 779 l 1,6,-1
 101 836 l 1,7,-1
 351 836 l 1,8,-1
 363 652 l 1,9,10
 388 744 388 744 447 799 c 128,-1,11
 506 854 506 854 586.5 854 c 128,-1,12
 667 854 667 854 756 814 c 1,13,-1
 744 746 l 1,14,15
 660 787 660 787 573.5 787 c 128,-1,16
 487 787 487 787 425 702 c 128,-1,17
 363 617 363 617 363 468 c 2,18,-1
 363 60 l 1,19,-1
 546 60 l 1,0,-1
EndSplineSet
EndChar

StartChar: s
Encoding: 115 115 103
Width: 874
GlyphClass: 2
Flags: W
LayerCount: 2
Fore
SplineSet
197 73 m 1,0,-1
 197 0 l 1,1,-1
 129 0 l 1,2,-1
 129 268 l 1,3,-1
 197 268 l 1,4,-1
 197 168 l 1,5,6
 253 53 253 53 450 53.5 c 0,7,8
 647 54 647 54 710 148 c 0,9,10
 731 180 731 180 731 243 c 0,11,12
 731 369 731 369 522 392.5 c 128,-1,13
 313 416 313 416 223 461 c 128,-1,14
 133 506 133 506 133 620 c 0,15,16
 132 792 132 792 320 840 c 0,17,18
 374 854 374 854 430 853 c 1,19,20
 598 853 598 853 684 776 c 1,21,-1
 684 836 l 1,22,-1
 754 836 l 1,23,-1
 754 572 l 1,24,-1
 684 572 l 1,25,-1
 684 695 l 1,26,27
 610 786 610 786 452 786 c 128,-1,28
 294 786 294 786 235 696 c 0,29,30
 215 666 215 666 215 620 c 0,31,32
 215 538 215 538 308 504 c 0,33,34
 353 487 353 487 503.5 465.5 c 128,-1,35
 654 444 654 444 732.5 395 c 128,-1,36
 811 346 811 346 811 227.5 c 128,-1,37
 811 109 811 109 710.5 47.5 c 128,-1,38
 610 -14 610 -14 447 -14 c 128,-1,39
 284 -14 284 -14 197 73 c 1,0,-1
EndSplineSet
EndChar

StartChar: t
Encoding: 116 116 104
Width: 547
GlyphClass: 2
Flags: W
LayerCount: 2
Fore
SplineSet
37 781 m 1,0,-1
 37 836 l 1,1,-1
 162 836 l 1,2,-1
 162 1148 l 1,3,-1
 241 1166 l 1,4,-1
 241 836 l 1,5,-1
 440 836 l 1,6,-1
 440 781 l 1,7,-1
 241 781 l 1,8,-1
 241 238 l 2,9,10
 241 135 241 135 262.5 97.5 c 128,-1,11
 284 60 284 60 378 60 c 2,12,-1
 456 60 l 1,13,-1
 456 0 l 1,14,-1
 375 0 l 2,15,16
 178 0 178 0 166 160 c 0,17,18
 162 204 162 204 162 250 c 2,19,-1
 162 781 l 1,20,-1
 37 781 l 1,0,-1
EndSplineSet
EndChar

StartChar: u
Encoding: 117 117 105
Width: 1102
GlyphClass: 2
Flags: W
LayerCount: 2
Fore
SplineSet
459 53 m 1,0,1
 594 53 594 53 784 173 c 1,2,-1
 784 776 l 1,3,-1
 610 776 l 1,4,-1
 610 836 l 1,5,-1
 863 836 l 1,6,-1
 863 58 l 1,7,-1
 1036 58 l 1,8,-1
 1036 0 l 1,9,-1
 796 0 l 1,10,-1
 788 104 l 1,11,12
 634 12 634 12 566.5 -1 c 128,-1,13
 499 -14 499 -14 406 -14 c 128,-1,14
 313 -14 313 -14 251 56 c 128,-1,15
 189 126 189 126 189 223 c 2,16,-1
 189 776 l 1,17,-1
 14 776 l 1,18,-1
 14 836 l 1,19,-1
 268 836 l 1,20,-1
 268 239 l 2,21,22
 268 104 268 104 360 68 c 0,23,24
 398 54 398 54 459 53 c 1,0,1
EndSplineSet
EndChar

StartChar: v
Encoding: 118 118 106
Width: 1032
GlyphClass: 2
Flags: W
LayerCount: 2
Fore
SplineSet
217 776 m 1,0,-1
 519 71 l 1,1,-1
 797 776 l 1,2,-1
 654 776 l 1,3,-1
 654 836 l 1,4,-1
 1046 836 l 1,5,-1
 1046 776 l 1,6,-1
 887 776 l 1,7,-1
 567 0 l 1,8,-1
 477 0 l 1,9,-1
 135 776 l 1,10,-1
 -29 776 l 1,11,-1
 -29 836 l 1,12,-1
 369 836 l 1,13,-1
 369 776 l 1,14,-1
 217 776 l 1,0,-1
EndSplineSet
EndChar

StartChar: w
Encoding: 119 119 107
Width: 1554
GlyphClass: 2
Flags: W
LayerCount: 2
Fore
SplineSet
217 776 m 1,0,-1
 463 65 l 1,1,-1
 724 776 l 1,2,-1
 581 776 l 1,3,-1
 581 836 l 1,4,-1
 961 836 l 1,5,-1
 961 776 l 1,6,-1
 815 776 l 1,7,-1
 1078 65 l 1,8,-1
 1316 776 l 1,9,-1
 1174 776 l 1,10,-1
 1174 836 l 1,11,-1
 1566 836 l 1,12,-1
 1566 776 l 1,13,-1
 1406 776 l 1,14,-1
 1127 0 l 1,15,-1
 1037 0 l 1,16,-1
 774 710 l 1,17,-1
 509 0 l 1,18,-1
 419 0 l 1,19,-1
 139 776 l 1,20,-1
 -25 776 l 1,21,-1
 -25 836 l 1,22,-1
 370 836 l 1,23,-1
 370 776 l 1,24,-1
 217 776 l 1,0,-1
EndSplineSet
EndChar

StartChar: x
Encoding: 120 120 108
Width: 1182
GlyphClass: 2
Flags: W
LayerCount: 2
Fore
SplineSet
327 776 m 1,0,-1
 577 481 l 1,1,-1
 824 776 l 1,2,-1
 676 776 l 1,3,-1
 676 836 l 1,4,-1
 1073 836 l 1,5,-1
 1073 776 l 1,6,-1
 914 776 l 1,7,-1
 623 426 l 1,8,-1
 933 60 l 1,9,-1
 1084 60 l 1,10,-1
 1084 0 l 1,11,-1
 689 0 l 1,12,-1
 689 60 l 1,13,-1
 853 60 l 1,14,-1
 584 378 l 1,15,-1
 321 60 l 1,16,-1
 459 60 l 1,17,-1
 459 0 l 1,18,-1
 76 0 l 1,19,-1
 76 60 l 1,20,-1
 226 60 l 1,21,-1
 537 433 l 1,22,-1
 249 776 l 1,23,-1
 100 776 l 1,24,-1
 100 836 l 1,25,-1
 484 836 l 1,26,-1
 484 776 l 1,27,-1
 327 776 l 1,0,-1
EndSplineSet
EndChar

StartChar: y
Encoding: 121 121 109
Width: 1026
GlyphClass: 2
Flags: W
LayerCount: 2
Fore
SplineSet
139 -206 m 1,0,1
 282 -206 282 -206 343.5 -191 c 0,2,3
 405 -176 405 -176 437 -104 c 2,4,-1
 507 58 l 1,5,-1
 451 58 l 1,6,-1
 131 776 l 1,7,-1
 -33 776 l 1,8,-1
 -33 836 l 1,9,-1
 366 836 l 1,10,-1
 366 776 l 1,11,-1
 218 776 l 1,12,-1
 517 89 l 1,13,-1
 793 776 l 1,14,-1
 650 776 l 1,15,-1
 650 836 l 1,16,-1
 1043 836 l 1,17,-1
 1043 776 l 1,18,-1
 884 776 l 1,19,-1
 510 -127 l 1,20,21
 450 -266 450 -266 264 -272 c 0,22,23
 206 -274 206 -274 139 -274 c 1,24,-1
 139 -206 l 1,0,1
EndSplineSet
EndChar

StartChar: z
Encoding: 122 122 110
Width: 909
GlyphClass: 2
Flags: W
LayerCount: 2
Fore
SplineSet
106 0 m 1,0,-1
 106 67 l 1,1,-1
 682 776 l 1,2,-1
 211 776 l 1,3,-1
 211 583 l 1,4,-1
 142 583 l 1,5,-1
 142 836 l 1,6,-1
 765 836 l 1,7,-1
 765 764 l 1,8,-1
 196 58 l 1,9,-1
 714 58 l 1,10,-1
 714 277 l 1,11,-1
 783 277 l 1,12,-1
 783 0 l 1,13,-1
 106 0 l 1,0,-1
EndSplineSet
EndChar

StartChar: braceleft
Encoding: 123 123 111
Width: 555
GlyphClass: 2
Flags: W
LayerCount: 2
Fore
SplineSet
68 658 m 1,0,1
 172 658 172 658 194 705 c 128,-1,2
 216 752 216 752 216 926.5 c 128,-1,3
 216 1101 216 1101 238 1157 c 0,4,5
 276 1255 276 1255 410 1255 c 2,6,-1
 475 1255 l 1,7,-1
 475 1201 l 1,8,9
 367 1201 367 1201 334 1165.5 c 128,-1,10
 301 1130 301 1130 301 963 c 128,-1,11
 301 796 301 796 276 709 c 128,-1,12
 251 622 251 622 164 616 c 1,13,14
 285 608 285 608 297 392 c 0,15,16
 301 321 301 321 301 212 c 128,-1,17
 301 103 301 103 334.5 67 c 128,-1,18
 368 31 368 31 475 31 c 1,19,-1
 475 -23 l 1,20,-1
 410 -23 l 1,21,22
 225 -24 225 -24 218 184 c 0,23,24
 216 248 216 248 216 364 c 128,-1,25
 216 480 216 480 194 527 c 128,-1,26
 172 574 172 574 68 574 c 1,27,-1
 68 658 l 1,0,1
EndSplineSet
EndChar

StartChar: bar
Encoding: 124 124 112
Width: 426
GlyphClass: 2
Flags: W
LayerCount: 2
Fore
SplineSet
178 1255 m 1,0,-1
 246 1255 l 1,1,-1
 246 -23 l 1,2,-1
 178 -23 l 1,3,-1
 178 1255 l 1,0,-1
EndSplineSet
EndChar

StartChar: braceright
Encoding: 125 125 113
Width: 557
GlyphClass: 2
Flags: W
LayerCount: 2
Fore
SplineSet
493 574 m 1,0,1
 390 574 390 574 368 527 c 128,-1,2
 346 480 346 480 346 305.5 c 128,-1,3
 346 131 346 131 324 75 c 0,4,5
 286 -23 286 -23 151 -23 c 2,6,-1
 86 -23 l 1,7,-1
 86 31 l 1,8,9
 194 31 194 31 227 66.5 c 128,-1,10
 260 102 260 102 260 269 c 128,-1,11
 260 436 260 436 286 523 c 128,-1,12
 312 610 312 610 397 616 c 1,13,14
 276 624 276 624 264 840 c 0,15,16
 260 912 260 912 260 1021.5 c 128,-1,17
 260 1131 260 1131 227.5 1166 c 128,-1,18
 195 1201 195 1201 86 1201 c 1,19,-1
 86 1255 l 1,20,-1
 151 1255 l 1,21,22
 337 1256 337 1256 344 1048 c 0,23,24
 346 984 346 984 346 868 c 128,-1,25
 346 752 346 752 368 705 c 128,-1,26
 390 658 390 658 493 658 c 1,27,-1
 493 574 l 1,0,1
EndSplineSet
EndChar

StartChar: asciitilde
Encoding: 126 126 114
Width: 788
GlyphClass: 2
Flags: W
LayerCount: 2
Fore
SplineSet
537 1022 m 0,0,1
 478 1022 478 1022 367 1045.5 c 128,-1,2
 256 1069 256 1069 215.5 1069 c 128,-1,3
 175 1069 175 1069 163 1028 c 1,4,-1
 125 1028 l 1,5,6
 140 1157 140 1157 249 1157 c 0,7,8
 306 1157 306 1157 409.5 1133.5 c 128,-1,9
 513 1110 513 1110 561 1110 c 128,-1,10
 609 1110 609 1110 624 1153 c 1,11,-1
 661 1153 l 1,12,13
 646 1022 646 1022 537 1022 c 0,0,1
EndSplineSet
EndChar

StartChar: exclamdown
Encoding: 161 161 115
Width: 430
GlyphClass: 2
Flags: W
LayerCount: 2
Fore
SplineSet
164 1171 m 1,0,-1
 267 1171 l 1,1,-1
 269 1066 l 1,2,-1
 164 1066 l 1,3,-1
 164 1171 l 1,0,-1
231 827 m 1,4,-1
 260 362 l 1,5,-1
 260 0 l 1,6,-1
 171 0 l 1,7,-1
 171 362 l 1,8,-1
 200 827 l 1,9,-1
 231 827 l 1,4,-1
EndSplineSet
EndChar

StartChar: cent
Encoding: 162 162 116
Width: 950
GlyphClass: 2
Flags: W
LayerCount: 2
Fore
SplineSet
865 149 m 1,0,1
 702 -14 702 -14 494 -14 c 1,2,3
 439 -12 439 -12 392 -1 c 1,4,-1
 331 -214 l 1,5,-1
 268 -214 l 1,6,-1
 335 15 l 1,7,8
 142 86 142 86 76 278 c 0,9,10
 54 342 54 342 55 426 c 1,11,12
 55 608 55 608 174.5 729 c 128,-1,13
 294 850 294 850 498 854 c 0,14,15
 533 854 533 854 577 847 c 1,16,-1
 640 1064 l 1,17,-1
 698 1064 l 1,18,-1
 632 834 l 1,19,20
 724 807 724 807 760 750 c 1,21,-1
 760 860 l 1,22,-1
 836 860 l 1,23,-1
 836 600 l 1,24,-1
 770 600 l 1,25,26
 754 735 754 735 614 773 c 1,27,-1
 411 65 l 1,28,29
 455 54 455 54 498 54 c 0,30,31
 714 54 714 54 842 222 c 1,32,-1
 865 149 l 1,0,1
558 783 m 1,33,34
 530 787 530 787 479 787 c 0,35,36
 349 787 349 787 243 689.5 c 128,-1,37
 137 592 137 592 137 413.5 c 128,-1,38
 137 235 137 235 268 133 c 0,39,40
 308 102 308 102 355 83 c 1,41,-1
 558 783 l 1,33,34
EndSplineSet
EndChar

StartChar: sterling
Encoding: 163 163 117
Width: 1096
GlyphClass: 2
Flags: W
LayerCount: 2
Fore
SplineSet
526 107 m 1,0,1
 461 -47 461 -47 255 -47 c 128,-1,2
 49 -47 49 -47 49 127 c 0,3,4
 49 208 49 208 113 254 c 128,-1,5
 177 300 177 300 293.5 300 c 128,-1,6
 410 300 410 300 481 204 c 1,7,8
 491 252 491 252 491 336.5 c 128,-1,9
 491 421 491 421 432 562 c 1,10,-1
 184 562 l 1,11,-1
 184 611 l 1,12,-1
 407 611 l 1,13,14
 387 650 387 650 366 690 c 0,15,16
 291 833 291 833 291 960.5 c 128,-1,17
 291 1088 291 1088 384.5 1171.5 c 128,-1,18
 478 1255 478 1255 638 1255 c 128,-1,19
 798 1255 798 1255 878.5 1178.5 c 128,-1,20
 959 1102 959 1102 959 968 c 1,21,-1
 883 968 l 1,22,23
 883 1189 883 1189 649 1189 c 0,24,25
 378 1189 378 1189 378 954 c 0,26,27
 378 846 378 846 460 698 c 0,28,29
 483 656 483 656 507 611 c 1,30,-1
 882 611 l 1,31,-1
 882 562 l 1,32,-1
 523 562 l 1,33,34
 569 432 569 432 569 333 c 128,-1,35
 569 234 569 234 543 156 c 1,36,37
 630 44 630 44 780 44 c 0,38,39
 965 44 965 44 965 262 c 1,40,-1
 1015 262 l 1,41,42
 1018 239 1018 239 1018 173.5 c 128,-1,43
 1018 108 1018 108 958 39.5 c 128,-1,44
 898 -29 898 -29 763 -29 c 128,-1,45
 628 -29 628 -29 526 107 c 1,0,1
281 244 m 0,46,47
 119 244 119 244 119 109 c 0,48,49
 119 65 119 65 171.5 27 c 128,-1,50
 224 -11 224 -11 291 7 c 128,-1,51
 358 25 358 25 403.5 54.5 c 128,-1,52
 449 84 449 84 466 154 c 1,53,54
 393 244 393 244 281 244 c 0,46,47
EndSplineSet
EndChar

StartChar: currency
Encoding: 164 164 118
Width: 1073
GlyphClass: 2
Flags: W
LayerCount: 2
Fore
SplineSet
743 647 m 1,0,1
 657 587 657 587 538 587 c 128,-1,2
 419 587 419 587 327 646 c 1,3,-1
 221 541 l 1,4,-1
 139 623 l 1,5,-1
 237 721 l 1,6,7
 147 829 147 829 147 969.5 c 128,-1,8
 147 1110 147 1110 235 1208 c 1,9,-1
 139 1306 l 1,10,-1
 221 1388 l 1,11,-1
 325 1285 l 1,12,13
 417 1344 417 1344 534.5 1344 c 128,-1,14
 652 1344 652 1344 746 1283 c 1,15,-1
 851 1388 l 1,16,-1
 934 1306 l 1,17,-1
 835 1206 l 1,18,19
 919 1098 919 1098 919 965 c 256,20,21
 919 828 919 828 832 724 c 1,22,-1
 934 623 l 1,23,-1
 851 541 l 1,24,-1
 743 647 l 1,0,1
508 680 m 0,25,26
 817 680 817 680 817 991 c 0,27,28
 817 1094 817 1094 732.5 1170.5 c 128,-1,29
 648 1247 648 1247 532 1247 c 256,30,31
 349 1247 349 1247 277 1089 c 0,32,33
 253 1036 253 1036 253 965 c 256,34,35
 253 830 253 830 339 755 c 128,-1,36
 425 680 425 680 508 680 c 0,25,26
EndSplineSet
EndChar

StartChar: yen
Encoding: 165 165 119
Width: 1266
GlyphClass: 2
Flags: W
LayerCount: 2
Fore
SplineSet
1014 226 m 1,0,-1
 678 226 l 1,1,-1
 678 62 l 1,2,-1
 838 62 l 1,3,-1
 838 0 l 1,4,-1
 435 0 l 1,5,-1
 435 62 l 1,6,-1
 596 62 l 1,7,-1
 596 226 l 1,8,-1
 265 226 l 1,9,-1
 265 288 l 1,10,-1
 596 288 l 1,11,-1
 596 433 l 1,12,-1
 265 433 l 1,13,-1
 265 496 l 1,14,-1
 560 496 l 1,15,-1
 154 1171 l 1,16,-1
 -4 1171 l 1,17,-1
 -4 1234 l 1,18,-1
 399 1234 l 1,19,-1
 399 1171 l 1,20,-1
 242 1171 l 1,21,-1
 639 508 l 1,22,-1
 1029 1171 l 1,23,-1
 870 1171 l 1,24,-1
 870 1234 l 1,25,-1
 1273 1234 l 1,26,-1
 1273 1171 l 1,27,-1
 1117 1171 l 1,28,-1
 714 496 l 1,29,-1
 1014 496 l 1,30,-1
 1014 433 l 1,31,-1
 678 433 l 1,32,-1
 678 288 l 1,33,-1
 1014 288 l 1,34,-1
 1014 226 l 1,0,-1
EndSplineSet
EndChar

StartChar: brokenbar
Encoding: 166 166 120
Width: 414
GlyphClass: 2
Flags: W
LayerCount: 2
Fore
SplineSet
172 1255 m 1,0,-1
 240 1255 l 1,1,-1
 240 715 l 1,2,-1
 172 715 l 1,3,-1
 172 1255 l 1,0,-1
172 517 m 1,4,-1
 240 517 l 1,5,-1
 240 -23 l 1,6,-1
 172 -23 l 1,7,-1
 172 517 l 1,4,-1
EndSplineSet
EndChar

StartChar: section
Encoding: 167 167 121
Width: 963
GlyphClass: 2
Flags: W
LayerCount: 2
Fore
SplineSet
220 220 m 1,0,1
 276 104 276 104 512 104 c 0,2,3
 618 104 618 104 683.5 146.5 c 128,-1,4
 749 189 749 189 749 258.5 c 0,5,6
 748 328 748 328 656 364 c 0,7,8
 604 384 604 384 458 405 c 128,-1,9
 312 426 312 426 234 467.5 c 128,-1,10
 156 509 156 509 156 618 c 128,-1,11
 156 727 156 727 261 782 c 1,12,13
 156 836 156 836 156 944 c 0,14,15
 156 1090 156 1090 344 1130 c 0,16,17
 398 1142 398 1142 453 1141 c 1,18,19
 621 1141 621 1141 707 1064 c 1,20,-1
 707 1124 l 1,21,-1
 777 1124 l 1,22,-1
 777 896 l 1,23,-1
 707 896 l 1,24,-1
 707 983 l 1,25,26
 633 1074 633 1074 474.5 1074 c 128,-1,27
 316 1074 316 1074 258 1004 c 0,28,29
 238 980 238 980 238 940 c 0,30,31
 238 866 238 866 331 832 c 0,32,33
 376 815 376 815 526 794 c 128,-1,34
 676 773 676 773 755 728.5 c 128,-1,35
 834 684 834 684 833 573.5 c 128,-1,36
 832 463 832 463 730 407 c 1,37,38
 826 352 826 352 826 248 c 0,39,40
 826 108 826 108 650 56 c 0,41,42
 588 38 588 38 498 37 c 1,43,44
 308 37 308 37 220 125 c 1,45,-1
 220 52 l 1,46,-1
 152 52 l 1,47,-1
 152 283 l 1,48,-1
 220 283 l 1,49,-1
 220 220 l 1,0,1
674 439 m 1,50,51
 754 475 754 475 754 569 c 0,52,53
 754 675 754 675 594 710 c 0,54,55
 539 722 539 722 449.5 734.5 c 128,-1,56
 360 747 360 747 324 758 c 1,57,58
 238 725 238 725 238 614 c 0,59,60
 238 518 238 518 387 486 c 0,61,62
 431 476 431 476 526 463.5 c 128,-1,63
 621 451 621 451 674 439 c 1,50,51
EndSplineSet
EndChar

StartChar: dieresis
Encoding: 168 168 122
Width: 608
GlyphClass: 2
Flags: W
LayerCount: 2
Fore
SplineSet
473 1046 m 1,0,-1
 473 940 l 1,1,-1
 373 940 l 1,2,-1
 373 1046 l 1,3,-1
 473 1046 l 1,0,-1
231 1046 m 1,4,-1
 231 940 l 1,5,-1
 131 940 l 1,6,-1
 131 1046 l 1,7,-1
 231 1046 l 1,4,-1
EndSplineSet
EndChar

StartChar: copyright
Encoding: 169 169 123
Width: 1458
GlyphClass: 2
Flags: W
LayerCount: 2
Fore
SplineSet
1040 379 m 1,0,1
 904 241 904 241 739.5 242 c 128,-1,2
 575 243 575 243 466 343.5 c 128,-1,3
 357 444 357 444 357 602 c 0,4,5
 357 854 357 854 574 942 c 0,6,7
 643 970 643 970 766.5 971 c 128,-1,8
 890 972 890 972 945 895 c 1,9,-1
 945 977 l 1,10,-1
 1016 977 l 1,11,-1
 1016 754 l 1,12,-1
 955 754 l 1,13,14
 938 910 938 910 735.5 910 c 128,-1,15
 533 910 533 910 458 735 c 0,16,17
 433 677 433 677 433 572.5 c 128,-1,18
 433 468 433 468 521 387.5 c 0,19,20
 609 307 609 307 760 306 c 128,-1,21
 911 305 911 305 1018 448 c 1,22,-1
 1040 379 l 1,0,1
308.5 1024 m 128,-1,24
 158 849 158 849 158 612 c 128,-1,25
 158 375 158 375 306.5 204.5 c 128,-1,26
 455 34 455 34 724.5 34 c 128,-1,27
 994 34 994 34 1146.5 207.5 c 128,-1,28
 1299 381 1299 381 1299 617 c 256,29,30
 1299 849 1299 849 1146.5 1024 c 128,-1,31
 994 1199 994 1199 726.5 1199 c 128,-1,23
 459 1199 459 1199 308.5 1024 c 128,-1,24
728 -23 m 256,32,33
 324 -23 324 -23 158 308 c 0,34,35
 86 451 86 451 86 616 c 256,36,37
 86 873 86 873 255 1065.5 c 128,-1,38
 424 1258 424 1258 728 1258 c 0,39,40
 1132 1258 1132 1258 1298 925 c 0,41,42
 1370 782 1370 782 1370 616 c 256,43,44
 1370 358 1370 358 1201.5 167.5 c 128,-1,45
 1033 -23 1033 -23 728 -23 c 256,32,33
EndSplineSet
EndChar

StartChar: ordfeminine
Encoding: 170 170 124
Width: 805
GlyphClass: 2
Flags: W
LayerCount: 2
Fore
SplineSet
123 835 m 0,0,1
 123 996 123 996 352 996 c 0,2,3
 443 996 443 996 531 978 c 1,4,-1
 531 1055 l 2,5,6
 531 1192 531 1192 390 1192 c 128,-1,7
 249 1192 249 1192 183 1123 c 1,8,-1
 147 1181 l 1,9,10
 223 1255 223 1255 392 1255 c 128,-1,11
 561 1255 561 1255 595 1129 c 0,12,13
 604 1096 604 1096 604 1067 c 2,14,-1
 604 710 l 1,15,-1
 710 710 l 1,16,-1
 710 650 l 1,17,-1
 542 650 l 1,18,-1
 533 708 l 1,19,20
 435 641 435 641 332 641 c 128,-1,21
 229 641 229 641 176 692 c 128,-1,22
 123 743 123 743 123 835 c 0,0,1
531 772 m 1,23,-1
 531 917 l 1,24,25
 471 932 471 932 384.5 932 c 128,-1,26
 298 932 298 932 262 918 c 0,27,28
 197 894 197 894 197 817 c 0,29,30
 197 706 197 706 326.5 706 c 128,-1,31
 456 706 456 706 531 772 c 1,23,-1
EndSplineSet
EndChar

StartChar: guillemotleft
Encoding: 171 171 125
Width: 778
GlyphClass: 2
Flags: W
LayerCount: 2
Fore
SplineSet
616 1043 m 1,0,-1
 664 1043 l 1,1,-1
 451 664 l 1,2,-1
 664 281 l 1,3,-1
 616 281 l 1,4,-1
 343 664 l 1,5,-1
 616 1043 l 1,0,-1
348 1043 m 1,6,-1
 396 1043 l 1,7,-1
 184 664 l 1,8,-1
 396 281 l 1,9,-1
 348 281 l 1,10,-1
 76 664 l 1,11,-1
 348 1043 l 1,6,-1
EndSplineSet
EndChar

StartChar: logicalnot
Encoding: 172 172 126
Width: 987
GlyphClass: 2
Flags: W
LayerCount: 2
Fore
SplineSet
838 697 m 1,0,-1
 838 304 l 1,1,-1
 761 304 l 1,2,-1
 761 617 l 1,3,-1
 100 617 l 1,4,-1
 100 697 l 1,5,-1
 838 697 l 1,0,-1
EndSplineSet
EndChar

StartChar: registered
Encoding: 174 174 128
Width: 1458
GlyphClass: 2
Flags: W
LayerCount: 2
Fore
SplineSet
411 316 m 1,0,-1
 497 316 l 1,1,-1
 497 931 l 1,2,-1
 404 931 l 1,3,-1
 404 988 l 1,4,-1
 782 988 l 2,5,6
 884 988 884 988 941 929 c 128,-1,7
 998 870 998 870 998 791 c 128,-1,8
 998 712 998 712 946 654 c 128,-1,9
 894 596 894 596 802 590 c 1,10,-1
 970 316 l 1,11,-1
 1072 316 l 1,12,-1
 1072 258 l 1,13,-1
 921 258 l 1,14,-1
 724 590 l 1,15,-1
 566 590 l 1,16,-1
 566 316 l 1,17,-1
 662 316 l 1,18,-1
 662 258 l 1,19,-1
 411 258 l 1,20,-1
 411 316 l 1,0,-1
566 648 m 1,21,-1
 782 648 l 2,22,23
 888 648 888 648 923 736 c 0,24,25
 933 761 933 761 933 803.5 c 128,-1,26
 933 846 933 846 892.5 888.5 c 128,-1,27
 852 931 852 931 782 931 c 2,28,-1
 566 931 l 1,29,-1
 566 648 l 1,21,-1
308.5 1024 m 128,-1,31
 158 849 158 849 158 612 c 128,-1,32
 158 375 158 375 306.5 204.5 c 128,-1,33
 455 34 455 34 724.5 34 c 128,-1,34
 994 34 994 34 1146.5 207.5 c 128,-1,35
 1299 381 1299 381 1299 617 c 256,36,37
 1299 849 1299 849 1146.5 1024 c 128,-1,38
 994 1199 994 1199 726.5 1199 c 128,-1,30
 459 1199 459 1199 308.5 1024 c 128,-1,31
728 -23 m 256,39,40
 324 -23 324 -23 158 308 c 0,41,42
 86 451 86 451 86 616 c 256,43,44
 86 873 86 873 255 1065.5 c 128,-1,45
 424 1258 424 1258 728 1258 c 0,46,47
 1132 1258 1132 1258 1298 925 c 0,48,49
 1370 782 1370 782 1370 616 c 256,50,51
 1370 358 1370 358 1201.5 167.5 c 128,-1,52
 1033 -23 1033 -23 728 -23 c 256,39,40
EndSplineSet
EndChar

StartChar: macron
Encoding: 175 175 129
Width: 662
GlyphClass: 2
Flags: W
LayerCount: 2
Fore
SplineSet
131 1123 m 1,0,-1
 522 1123 l 1,1,-1
 522 1058 l 1,2,-1
 131 1058 l 1,3,-1
 131 1123 l 1,0,-1
EndSplineSet
EndChar

StartChar: degree
Encoding: 176 176 130
Width: 813
GlyphClass: 2
Flags: W
LayerCount: 2
Fore
SplineSet
397 1239 m 256,0,1
 262 1240 262 1240 216 1130 c 0,2,3
 202 1096 202 1096 201 1052 c 257,4,5
 201 920 201 920 318 878 c 0,6,7
 354 865 354 865 397 865 c 256,8,9
 532 864 532 864 578 974 c 0,10,11
 592 1008 592 1008 593 1052 c 257,12,13
 593 1184 593 1184 476 1226 c 0,14,15
 440 1239 440 1239 397 1239 c 256,0,1
397 768 m 256,16,17
 275 768 275 768 210 822 c 0,18,19
 90 920 90 920 90 1052 c 256,20,21
 90 1185 90 1185 182.5 1260.5 c 128,-1,22
 275 1336 275 1336 397 1336 c 256,23,24
 519 1336 519 1336 584 1282 c 0,25,26
 704 1184 704 1184 704 1052 c 256,27,28
 704 919 704 919 611.5 843.5 c 128,-1,29
 519 768 519 768 397 768 c 256,16,17
EndSplineSet
EndChar

StartChar: plusminus
Encoding: 177 177 131
Width: 901
GlyphClass: 2
Flags: W
LayerCount: 2
Fore
SplineSet
840 0 m 1,0,-1
 66 0 l 1,1,-1
 66 62 l 1,2,-1
 840 62 l 1,3,-1
 840 0 l 1,0,-1
486 598 m 1,4,-1
 842 598 l 1,5,-1
 842 534 l 1,6,-1
 486 534 l 1,7,-1
 486 138 l 1,8,-1
 424 138 l 1,9,-1
 424 534 l 1,10,-1
 68 534 l 1,11,-1
 68 598 l 1,12,-1
 424 598 l 1,13,-1
 424 982 l 1,14,-1
 486 982 l 1,15,-1
 486 598 l 1,4,-1
EndSplineSet
EndChar

StartChar: twosuperior
Encoding: 178 178 132
Width: 811
GlyphClass: 2
Flags: W
LayerCount: 2
Fore
SplineSet
390 881 m 0,0,1
 680 881 680 881 680 631 c 0,2,3
 680 473 680 473 339 164 c 0,4,5
 271 102 271 102 241 72 c 1,6,-1
 639 72 l 1,7,-1
 639 0 l 1,8,-1
 133 0 l 1,9,-1
 133 70 l 1,10,11
 151 88 151 88 193 125 c 0,12,13
 602 485 602 485 602 635 c 0,14,15
 602 812 602 812 418 812 c 0,16,17
 284 812 284 812 238 702 c 0,18,19
 224 667 224 667 224 631 c 128,-1,20
 224 595 224 595 237 535 c 1,21,-1
 159 535 l 1,22,23
 151 570 151 570 151 656.5 c 128,-1,24
 151 743 151 743 226.5 812 c 128,-1,25
 302 881 302 881 390 881 c 0,0,1
EndSplineSet
EndChar

StartChar: threesuperior
Encoding: 179 179 133
Width: 811
GlyphClass: 2
Flags: W
LayerCount: 2
Fore
SplineSet
382 812 m 0,0,1
 232 812 232 812 175 702 c 1,2,-1
 109 732 l 1,3,4
 186 882 186 882 384 882 c 0,5,6
 493 882 493 882 555 837 c 0,7,8
 667 756 667 756 667 637 c 128,-1,9
 667 518 667 518 538 464 c 1,10,11
 682 411 682 411 682 250 c 0,12,13
 682 135 682 135 592.5 61 c 128,-1,14
 503 -13 503 -13 371.5 -12.5 c 0,15,16
 240 -12 240 -12 144 86 c 0,17,18
 112 118 112 118 92 161 c 1,19,-1
 152 200 l 1,20,21
 223 53 223 53 376 52.5 c 0,22,23
 529 52 529 52 588 168 c 0,24,25
 606 204 606 204 606 258 c 0,26,27
 606 358 606 358 512 398 c 0,28,29
 452 424 452 424 320 424 c 2,30,-1
 284 424 l 1,31,-1
 284 498 l 1,32,-1
 318 498 l 2,33,34
 490 498 490 498 539.5 537.5 c 128,-1,35
 589 577 589 577 589 651.5 c 128,-1,36
 589 726 589 726 527 769 c 128,-1,37
 465 812 465 812 382 812 c 0,0,1
EndSplineSet
EndChar

StartChar: acute
Encoding: 180 180 134
Width: 414
GlyphClass: 2
Flags: W
LayerCount: 2
Fore
SplineSet
125 985 m 1,0,-1
 184 1234 l 1,1,-1
 310 1234 l 1,2,-1
 156 985 l 1,3,-1
 125 985 l 1,0,-1
EndSplineSet
EndChar

StartChar: mu
Encoding: 181 181 135
AltUni2: 0003bc.ffffffff.0
Width: 1190
GlyphClass: 2
Flags: W
LayerCount: 2
Fore
SplineSet
529 53 m 0,0,1
 664 53 664 53 854 173 c 1,2,-1
 854 776 l 1,3,-1
 680 776 l 1,4,-1
 680 836 l 1,5,-1
 933 836 l 1,6,-1
 933 58 l 1,7,-1
 1106 58 l 1,8,-1
 1106 0 l 1,9,-1
 866 0 l 1,10,-1
 858 104 l 1,11,12
 704 12 704 12 636.5 -1 c 128,-1,13
 569 -14 569 -14 487.5 -14 c 128,-1,14
 406 -14 406 -14 339 40 c 1,15,-1
 339 -232 l 1,16,-1
 259 -232 l 1,17,-1
 259 776 l 1,18,-1
 84 776 l 1,19,-1
 84 836 l 1,20,-1
 338 836 l 1,21,-1
 339 208 l 1,22,23
 348 53 348 53 529 53 c 0,0,1
EndSplineSet
EndChar

StartChar: paragraph
Encoding: 182 182 136
Width: 1020
GlyphClass: 2
Flags: W
LayerCount: 2
Fore
SplineSet
709 661 m 1,0,-1
 513 661 l 1,1,-1
 513 -23 l 1,2,-1
 432 -23 l 1,3,-1
 432 661 l 1,4,-1
 396 661 l 2,5,6
 237 661 237 661 147 749 c 128,-1,7
 57 837 57 837 57 952 c 128,-1,8
 57 1067 57 1067 147 1150.5 c 128,-1,9
 237 1234 237 1234 396 1234 c 2,10,-1
 956 1234 l 1,11,-1
 956 1171 l 1,12,-1
 790 1171 l 1,13,-1
 790 -23 l 1,14,-1
 709 -23 l 1,15,-1
 709 661 l 1,0,-1
EndSplineSet
EndChar

StartChar: periodcentered
Encoding: 183 183 137
Width: 369
GlyphClass: 2
Flags: W
LayerCount: 2
Fore
SplineSet
242 815 m 1,0,-1
 242 695 l 1,1,-1
 125 695 l 1,2,-1
 125 815 l 1,3,-1
 242 815 l 1,0,-1
EndSplineSet
EndChar

StartChar: cedilla
Encoding: 184 184 138
Width: 430
GlyphClass: 2
Flags: W
LayerCount: 2
Fore
SplineSet
336 -188 m 0,0,1
 336 -276 336 -276 201 -276 c 0,2,3
 152 -276 152 -276 100 -256 c 1,4,-1
 100 -210 l 1,5,6
 147 -224 147 -224 189.5 -224 c 128,-1,7
 232 -224 232 -224 232 -188.5 c 128,-1,8
 232 -153 232 -153 131 -144 c 1,9,-1
 189 6 l 1,10,-1
 239 6 l 1,11,-1
 200 -108 l 1,12,-1
 212 -108 l 2,13,14
 273 -108 273 -108 304.5 -136 c 128,-1,15
 336 -164 336 -164 336 -188 c 0,0,1
EndSplineSet
EndChar

StartChar: onesuperior
Encoding: 185 185 139
Width: 551
GlyphClass: 2
Flags: W
LayerCount: 2
Fore
SplineSet
439 61 m 1,0,-1
 439 0 l 1,1,-1
 127 0 l 1,2,-1
 127 61 l 1,3,-1
 248 61 l 1,4,-1
 248 787 l 1,5,-1
 144 767 l 1,6,-1
 127 832 l 1,7,-1
 322 869 l 1,8,-1
 322 61 l 1,9,-1
 439 61 l 1,0,-1
EndSplineSet
EndChar

StartChar: ordmasculine
Encoding: 186 186 140
Width: 874
GlyphClass: 2
Flags: W
LayerCount: 2
Fore
SplineSet
660 844 m 0,0,1
 682 890 682 890 681.5 976 c 128,-1,2
 681 1062 681 1062 607.5 1127 c 128,-1,3
 534 1192 534 1192 435 1192 c 256,4,5
 276 1192 276 1192 212 1055 c 0,6,7
 191 1010 191 1010 191 923 c 128,-1,8
 191 836 191 836 263.5 771 c 128,-1,9
 336 706 336 706 435 706 c 256,10,11
 595 706 595 706 660 844 c 0,0,1
660 723.5 m 128,-1,13
 565 641 565 641 435 641 c 257,14,15
 306 642 306 642 239 700 c 0,16,17
 117 805 117 805 117 949.5 c 128,-1,18
 117 1094 117 1094 211.5 1174.5 c 128,-1,19
 306 1255 306 1255 435 1255 c 256,20,21
 566 1256 566 1256 633 1198 c 0,22,23
 755 1093 755 1093 755 949.5 c 128,-1,12
 755 806 755 806 660 723.5 c 128,-1,13
EndSplineSet
EndChar

StartChar: guillemotright
Encoding: 187 187 141
Width: 778
GlyphClass: 2
Flags: W
LayerCount: 2
Fore
SplineSet
437 664 m 1,0,-1
 165 281 l 1,1,-1
 117 281 l 1,2,-1
 329 664 l 1,3,-1
 117 1043 l 1,4,-1
 165 1043 l 1,5,-1
 437 664 l 1,0,-1
705 664 m 1,6,-1
 432 281 l 1,7,-1
 384 281 l 1,8,-1
 597 664 l 1,9,-1
 384 1043 l 1,10,-1
 432 1043 l 1,11,-1
 705 664 l 1,6,-1
EndSplineSet
EndChar

StartChar: onequarter
Encoding: 188 188 142
Width: 1348
GlyphClass: 2
Flags: W
LayerCount: 2
Fore
SplineSet
398 426 m 1
 398 365 l 1
 86 365 l 1
 86 426 l 1
 207 426 l 1
 207 1152 l 1
 103 1132 l 1
 86 1197 l 1
 281 1234 l 1
 281 426 l 1
 398 426 l 1
717 316 m 1
 1055 866 l 1
 1147 866 l 1
 1147 323 l 1
 1325 323 l 1
 1325 260 l 1
 1147 260 l 1
 1147 61 l 1
 1259 61 l 1
 1259 0 l 1
 962 0 l 1
 962 61 l 1
 1074 61 l 1
 1074 260 l 1
 726 260 l 1
 717 316 l 1
1074 323 m 1
 1074 768 l 1
 1006 654 1006 654 940 546 c 0
 874 438 874 438 807 323 c 1
 1074 323 l 1
EndSplineSet
Refer: 295 8260 N 1 0 0 1 366 0 2
EndChar

StartChar: onehalf
Encoding: 189 189 143
Width: 1339
GlyphClass: 2
Flags: W
LayerCount: 2
Fore
SplineSet
398 426 m 1
 398 365 l 1
 86 365 l 1
 86 426 l 1
 207 426 l 1
 207 1152 l 1
 103 1132 l 1
 86 1197 l 1
 281 1234 l 1
 281 426 l 1
 398 426 l 1
1195 640 m 0
 1195 812 1195 812 988 812 c 0
 878 812 878 812 832 702 c 1
 807.232432432 640.081081081 807.232432432 640.081081081 830 535 c 1
 752 535 l 1
 744 570 744 570 744 657 c 0
 744 744 744 744 819 812.5 c 0
 894 881 894 881 1012 881 c 0
 1130 881 1130 881 1201.5 816 c 0
 1273 751 1273 751 1273 631 c 0
 1273 473 1273 473 932 164 c 0
 864 102 864 102 834 72 c 1
 1232 72 l 1
 1232 0 l 1
 726 0 l 1
 726 70 l 1
 744 88 744 88 786 125 c 0
 1195 486 1195 486 1195 640 c 0
EndSplineSet
Refer: 295 8260 N 1 0 0 1 327 0 2
EndChar

StartChar: threequarters
Encoding: 190 190 144
Width: 1600
GlyphClass: 2
Flags: W
LayerCount: 2
Fore
SplineSet
504 829 m 1
 648 776 648 776 648 595 c 0
 648 501 648 501 559 426.5 c 0
 470 352 470 352 338 352 c 0
 206 352 206 352 110 450 c 0
 78 482 78 482 58 526 c 1
 118 565 l 1
 189 418 189 418 356 418 c 0
 444 418 444 418 508 474 c 0
 572 530 572 530 572 603 c 0
 572 676 572 676 546 711 c 0
 520 746 520 746 469.5 768 c 0
 419 790 419 790 286 789 c 1
 250 789 l 1
 250 863 l 1
 284 863 l 1
 409 862 409 862 449 876 c 0
 555 911 555 911 555 1001 c 0
 555 1091 555 1091 493 1134 c 0
 431 1177 431 1177 348 1177 c 0
 198 1177 198 1177 141 1067 c 1
 75 1097 l 1
 152 1247 152 1247 350 1247 c 0
 459 1247 459 1247 546 1184 c 0
 633 1121 633 1121 633 1002 c 0
 633 883 633 883 504 829 c 1
928 316 m 1
 1266 866 l 1
 1358 866 l 1
 1358 323 l 1
 1536 323 l 1
 1536 260 l 1
 1358 260 l 1
 1358 61 l 1
 1470 61 l 1
 1470 0 l 1
 1173 0 l 1
 1173 61 l 1
 1285 61 l 1
 1285 260 l 1
 937 260 l 1
 928 316 l 1
1285 323 m 1
 1285 768 l 1
 1217 654 1217 654 1151 546 c 0
 1085 438 1085 438 1018 323 c 1
 1285 323 l 1
EndSplineSet
Refer: 295 8260 N 1 0 0 1 601 0 2
EndChar

StartChar: questiondown
Encoding: 191 191 145
Width: 692
GlyphClass: 2
Flags: W
LayerCount: 2
Fore
SplineSet
378 49 m 0,0,1
 561 49 561 49 622 196 c 1,2,-1
 683 160 l 1,3,4
 607 -23 607 -23 388 -23.5 c 0,5,6
 169 -24 169 -24 87 152 c 0,7,8
 61 208 61 208 61 294 c 128,-1,9
 61 380 61 380 98 434 c 128,-1,10
 135 488 135 488 213.5 556 c 128,-1,11
 292 624 292 624 336.5 699 c 128,-1,12
 381 774 381 774 390 911 c 1,13,-1
 423 911 l 1,14,15
 422 656 422 656 280 526 c 0,16,17
 187 441 187 441 162.5 391.5 c 128,-1,18
 138 342 138 342 138 262 c 128,-1,19
 138 182 138 182 200.5 115.5 c 128,-1,20
 263 49 263 49 378 49 c 0,0,1
354 1223 m 1,21,-1
 438 1223 l 1,22,-1
 438 1144 l 1,23,-1
 354 1144 l 1,24,-1
 354 1223 l 1,21,-1
EndSplineSet
EndChar

StartChar: AE
Encoding: 198 198 152
Width: 1970
GlyphClass: 2
Flags: W
LayerCount: 2
Fore
SplineSet
918 1164 m 1,0,-1
 1012 666 l 1,1,-1
 1444 666 l 1,2,-1
 1414 824 l 1,3,-1
 1481 824 l 1,4,-1
 1555 424 l 1,5,-1
 1488 424 l 1,6,-1
 1457 596 l 1,7,-1
 1025 596 l 1,8,-1
 1123 70 l 1,9,-1
 1806 70 l 1,10,-1
 1750 376 l 1,11,-1
 1827 376 l 1,12,-1
 1896 0 l 1,13,-1
 868 0 l 1,14,-1
 880 62 l 1,15,-1
 1038 62 l 1,16,-1
 961 503 l 1,17,-1
 486 503 l 1,18,-1
 244 62 l 1,19,-1
 402 62 l 1,20,-1
 390 0 l 1,21,-1
 -12 0 l 1,22,-1
 0 62 l 1,23,-1
 157 62 l 1,24,-1
 781 1171 l 1,25,-1
 623 1171 l 1,26,-1
 635 1234 l 1,27,-1
 1645 1234 l 1,28,-1
 1715 858 l 1,29,-1
 1638 858 l 1,30,-1
 1582 1164 l 1,31,-1
 918 1164 l 1,0,-1
519 564 m 1,32,-1
 949 564 l 1,33,-1
 845 1153 l 1,34,-1
 519 564 l 1,32,-1
EndSplineSet
EndChar

StartChar: Eth
Encoding: 208 208 162
Width: 1434
GlyphClass: 2
Flags: W
LayerCount: 2
Fore
SplineSet
791 1234 m 2,0,1
 1134 1234 1134 1234 1276 912 c 0,2,3
 1336 775 1336 775 1336 637 c 0,4,5
 1336 364 1336 364 1192 182 c 128,-1,6
 1048 0 1048 0 791 0 c 2,7,-1
 98 0 l 1,8,-1
 98 62 l 1,9,-1
 264 62 l 1,10,-1
 264 597 l 1,11,-1
 109 597 l 1,12,-1
 109 662 l 1,13,-1
 264 662 l 1,14,-1
 264 1171 l 1,15,-1
 98 1171 l 1,16,-1
 98 1234 l 1,17,-1
 791 1234 l 2,0,1
346 662 m 1,18,-1
 500 662 l 1,19,-1
 500 597 l 1,20,-1
 346 597 l 1,21,-1
 346 62 l 1,22,-1
 790 62 l 2,23,24
 1010 62 1010 62 1131 226 c 128,-1,25
 1252 390 1252 390 1252 616 c 0,26,27
 1252 934 1252 934 1047 1088 c 0,28,29
 938 1170 938 1170 790 1171 c 1,30,-1
 346 1171 l 1,31,-1
 346 662 l 1,18,-1
EndSplineSet
EndChar

StartChar: multiply
Encoding: 215 215 169
Width: 637
GlyphClass: 2
Flags: W
LayerCount: 2
Fore
SplineSet
122 812 m 1,0,-1
 325 610 l 1,1,-1
 529 814 l 1,2,-1
 573 769 l 1,3,-1
 371 565 l 1,4,-1
 573 361 l 1,5,-1
 529 317 l 1,6,-1
 325 521 l 1,7,-1
 122 318 l 1,8,-1
 78 362 l 1,9,-1
 281 565 l 1,10,-1
 78 768 l 1,11,-1
 122 812 l 1,0,-1
EndSplineSet
EndChar

StartChar: Oslash
Encoding: 216 216 170
Width: 1440
GlyphClass: 2
Flags: W
LayerCount: 2
Fore
SplineSet
1160 1095 m 1,0,1
 1362 909 1362 909 1362 631.5 c 128,-1,2
 1362 354 1362 354 1193.5 165.5 c 128,-1,3
 1025 -23 1025 -23 722 -23 c 0,4,5
 517 -23 517 -23 365 72 c 1,6,-1
 276 -42 l 1,7,-1
 228 -8 l 1,8,-1
 317 105 l 1,9,10
 82 288 82 288 82 613 c 0,11,12
 82 871 82 871 250.5 1063 c 128,-1,13
 419 1255 419 1255 722 1255 c 0,14,15
 956 1255 956 1255 1118 1131 c 1,16,-1
 1204 1242 l 1,17,-1
 1250 1210 l 1,18,-1
 1160 1095 l 1,0,1
1069 1069 m 1,19,20
 923 1182 923 1182 722 1182 c 0,21,22
 372 1182 372 1182 228 886 c 0,23,24
 166 759 166 759 166 654 c 0,25,26
 166 322 166 322 363 165 c 1,27,-1
 1069 1069 l 1,19,20
411 131 m 1,28,29
 543 48 543 48 678 48 c 0,30,31
 1068 48 1068 48 1213 337 c 0,32,33
 1278 467 1278 467 1278 598 c 0,34,35
 1278 866 1278 866 1111 1031 c 1,36,-1
 411 131 l 1,28,29
EndSplineSet
EndChar

StartChar: Thorn
Encoding: 222 222 176
Width: 1130
GlyphClass: 2
Flags: W
LayerCount: 2
Fore
SplineSet
338 1042 m 1,0,-1
 736 1042 l 2,1,2
 899 1042 899 1042 986.5 953.5 c 128,-1,3
 1074 865 1074 865 1074 739.5 c 128,-1,4
 1074 614 1074 614 983 517.5 c 128,-1,5
 892 421 892 421 736 421 c 2,6,-1
 338 421 l 1,7,-1
 338 62 l 1,8,-1
 508 62 l 1,9,-1
 508 0 l 1,10,-1
 104 0 l 1,11,-1
 104 62 l 1,12,-1
 257 62 l 1,13,-1
 257 1171 l 1,14,-1
 106 1171 l 1,15,-1
 106 1234 l 1,16,-1
 493 1234 l 1,17,-1
 493 1171 l 1,18,-1
 338 1171 l 1,19,-1
 338 1042 l 1,0,-1
338 486 m 1,20,-1
 736 486 l 2,21,22
 918 486 918 486 978 648 c 0,23,24
 995 694 995 694 995 767 c 128,-1,25
 995 840 995 840 927.5 909.5 c 128,-1,26
 860 979 860 979 736 979 c 2,27,-1
 338 979 l 1,28,-1
 338 486 l 1,20,-1
EndSplineSet
EndChar

StartChar: germandbls
Encoding: 223 223 177
Width: 1081
GlyphClass: 2
Flags: W
LayerCount: 2
Fore
SplineSet
562 62 m 1,0,1
 969 62 969 62 969 337 c 0,2,3
 969 544 969 544 756 616 c 0,4,5
 680 642 680 642 570 641 c 1,6,-1
 570 685 l 1,7,8
 695 691 695 691 764.5 771 c 128,-1,9
 834 851 834 851 834 949.5 c 128,-1,10
 834 1048 834 1048 764 1114 c 128,-1,11
 694 1180 694 1180 554 1180 c 128,-1,12
 414 1180 414 1180 354.5 1106.5 c 128,-1,13
 295 1033 295 1033 295 856 c 2,14,-1
 295 62 l 1,15,-1
 411 62 l 1,16,-1
 411 0 l 1,17,-1
 61 0 l 1,18,-1
 61 62 l 1,19,-1
 214 62 l 1,20,-1
 214 851 l 2,21,22
 214 1255 214 1255 563 1255 c 0,23,24
 723 1255 723 1255 818 1165.5 c 128,-1,25
 913 1076 913 1076 912.5 936 c 0,26,27
 912 796 912 796 796 716 c 0,28,29
 754 688 754 688 694 676 c 1,30,31
 853 670 853 670 950.5 572.5 c 128,-1,32
 1048 475 1048 475 1048 337 c 0,33,34
 1048 100 1048 100 781 26 c 0,35,36
 689 0 689 0 562 0 c 1,37,-1
 562 62 l 1,0,1
EndSplineSet
EndChar

StartChar: ae
Encoding: 230 230 184
Width: 1499
GlyphClass: 2
Flags: W
LayerCount: 2
Fore
SplineSet
761 116 m 1,0,1
 619 -14 619 -14 388 -14 c 0,2,3
 80 -14 80 -14 80 248 c 0,4,5
 80 474 80 474 404 475 c 0,6,7
 533 475 533 475 680 446 c 1,8,-1
 674 575 l 1,9,10
 674 787 674 787 436 787 c 0,11,12
 246 787 246 787 156 696 c 1,13,-1
 120 755 l 1,14,15
 223 854 223 854 459 854 c 128,-1,16
 695 854 695 854 744 641 c 1,17,18
 857 854 857 854 1097 854 c 0,19,20
 1257 854 1257 854 1352 723 c 128,-1,21
 1447 592 1447 592 1447 400 c 1,22,-1
 756 400 l 1,23,24
 756 136 756 136 934 74 c 0,25,26
 996 52 996 52 1081 52 c 1,27,28
 1276 48 1276 48 1415 204 c 1,29,-1
 1448 149 l 1,30,31
 1281 -14 1281 -14 1077.5 -14 c 128,-1,32
 874 -14 874 -14 761 116 c 1,0,1
1369 466 m 1,33,34
 1352 680 1352 680 1208 760 c 0,35,36
 1160 787 1160 787 1088 787 c 0,37,38
 945 787 945 787 855 691 c 128,-1,39
 765 595 765 595 758 466 c 1,40,-1
 1369 466 l 1,33,34
161 232 m 0,41,42
 161 53 161 53 403 53 c 0,43,44
 491 53 491 53 565.5 72.5 c 128,-1,45
 640 92 640 92 731 164 c 1,46,47
 680 266 680 266 680 384 c 1,48,49
 543 410 543 410 429.5 410 c 128,-1,50
 316 410 316 410 260 388 c 0,51,52
 161 350 161 350 161 232 c 0,41,42
EndSplineSet
EndChar

StartChar: eth
Encoding: 240 240 194
Width: 920
GlyphClass: 2
Flags: W
LayerCount: 2
Fore
SplineSet
447 658 m 0,0,1
 243 658 243 658 162 487 c 0,2,3
 135 430 135 430 135 329.5 c 128,-1,4
 135 229 135 229 218.5 139 c 128,-1,5
 302 49 302 49 451 49 c 128,-1,6
 600 49 600 49 681 135 c 128,-1,7
 762 221 762 221 762 356.5 c 128,-1,8
 762 492 762 492 668.5 575 c 128,-1,9
 575 658 575 658 447 658 c 0,0,1
465 1143 m 1,10,-1
 794 1230 l 1,11,-1
 818 1175 l 1,12,-1
 493 1091 l 1,13,-1
 705 697 l 1,14,15
 839 472 839 472 839 367 c 0,16,17
 839 185 839 185 721 81 c 128,-1,18
 603 -23 603 -23 478 -23 c 0,19,20
 265 -23 265 -23 159 93 c 128,-1,21
 53 209 53 209 53 363.5 c 128,-1,22
 53 518 53 518 166.5 622 c 128,-1,23
 280 726 280 726 407 726 c 128,-1,24
 534 726 534 726 632 678 c 1,25,-1
 415 1071 l 1,26,-1
 94 988 l 1,27,-1
 75 1040 l 1,28,-1
 386 1122 l 1,29,-1
 280 1314 l 1,30,-1
 347 1361 l 1,31,-1
 465 1143 l 1,10,-1
EndSplineSet
EndChar

StartChar: divide
Encoding: 247 247 201
Width: 522
GlyphClass: 2
Flags: W
LayerCount: 2
Fore
SplineSet
529 413 m 1,0,-1
 0 413 l 1,1,-1
 0 475 l 1,2,-1
 529 475 l 1,3,-1
 529 413 l 1,0,-1
324 276 m 1,4,-1
 324 156 l 1,5,-1
 208 156 l 1,6,-1
 208 276 l 1,7,-1
 324 276 l 1,4,-1
324 725 m 1,8,-1
 324 605 l 1,9,-1
 208 605 l 1,10,-1
 208 725 l 1,11,-1
 324 725 l 1,8,-1
EndSplineSet
EndChar

StartChar: oslash
Encoding: 248 248 202
Width: 997
GlyphClass: 2
Flags: W
LayerCount: 2
Fore
SplineSet
741 794 m 1,0,1
 953 677 953 677 953 447.5 c 128,-1,2
 953 218 953 218 818 102 c 128,-1,3
 683 -14 683 -14 500 -14 c 0,4,5
 419 -14 419 -14 341 12 c 1,6,-1
 234 -196 l 1,7,-1
 194 -172 l 1,8,-1
 297 29 l 1,9,10
 156 93 156 93 90 234 c 0,11,12
 52 316 52 316 51 423 c 1,13,14
 51 626 51 626 184 740 c 128,-1,15
 317 854 317 854 500 854 c 0,16,17
 604 854 604 854 698 815 c 1,18,-1
 813 1039 l 1,19,-1
 854 1015 l 1,20,-1
 741 794 l 1,0,1
708 730 m 1,21,-1
 372 74 l 1,22,23
 504 30 504 30 604 65 c 128,-1,24
 704 100 704 100 756 146 c 0,25,26
 872 249 872 249 872.5 439 c 128,-1,27
 873 629 873 629 708 730 c 1,21,-1
666 752 m 1,28,29
 587 787 587 787 509 787 c 0,30,31
 352 787 352 787 242.5 690 c 128,-1,32
 133 593 133 593 133 424 c 0,33,34
 133 187 133 187 329 92 c 1,35,-1
 666 752 l 1,28,29
EndSplineSet
EndChar

StartChar: thorn
Encoding: 254 254 208
Width: 1083
GlyphClass: 2
Flags: W
LayerCount: 2
Fore
SplineSet
252 1234 m 1,0,-1
 252 695 l 1,1,2
 387 854 387 854 600.5 854 c 128,-1,3
 814 854 814 854 932 728.5 c 128,-1,4
 1050 603 1050 603 1050 434 c 0,5,6
 1050 186 1050 186 857 51 c 0,7,8
 755 -21 755 -21 637 -21 c 0,9,10
 519 -21 519 -21 407 28 c 0,11,12
 295 77 295 77 252 125 c 1,13,-1
 249 -360 l 1,14,-1
 8 -360 l 1,15,-1
 8 -300 l 1,16,-1
 173 -300 l 1,17,-1
 173 1174 l 1,18,-1
 24 1174 l 1,19,-1
 24 1234 l 1,20,-1
 252 1234 l 1,0,-1
252 193 m 1,21,22
 432 53 432 53 608.5 53 c 128,-1,23
 785 53 785 53 878 165 c 128,-1,24
 971 277 971 277 971 388 c 0,25,26
 971 580 971 580 873 683.5 c 128,-1,27
 775 787 775 787 596 787 c 128,-1,28
 417 787 417 787 252 619 c 1,29,-1
 252 193 l 1,21,22
EndSplineSet
EndChar

StartChar: hbar
Encoding: 295 295 210
Width: 1204
GlyphClass: 2
Flags: W
LayerCount: 2
Fore
SplineSet
93 1176 m 1,0,-1
 93 1234 l 1,1,-1
 345 1234 l 1,2,-1
 345 1012 l 1,3,-1
 577 1012 l 1,4,-1
 577 949 l 1,5,-1
 345 949 l 1,6,-1
 345 736 l 1,7,8
 513 829 513 829 581.5 841.5 c 128,-1,9
 650 854 650 854 706 854 c 0,10,11
 840 854 840 854 903.5 783.5 c 128,-1,12
 967 713 967 713 967 617 c 2,13,-1
 967 60 l 1,14,-1
 1142 60 l 1,15,-1
 1142 0 l 1,16,-1
 730 0 l 1,17,-1
 730 60 l 1,18,-1
 888 60 l 1,19,-1
 888 601 l 2,20,21
 888 787 888 787 694 787 c 0,22,23
 568 787 568 787 426 709 c 0,24,25
 386 687 386 687 345 664 c 1,26,-1
 345 60 l 1,27,-1
 537 60 l 1,28,-1
 537 0 l 1,29,-1
 104 0 l 1,30,-1
 104 60 l 1,31,-1
 266 60 l 1,32,-1
 266 949 l 1,33,-1
 92 949 l 1,34,-1
 92 1012 l 1,35,-1
 266 1012 l 1,36,-1
 266 1176 l 1,37,-1
 93 1176 l 1,0,-1
EndSplineSet
EndChar

StartChar: dotlessi
Encoding: 305 305 213
Width: 569
GlyphClass: 2
Flags: W
LayerCount: 2
Fore
SplineSet
106 776 m 1,0,-1
 106 836 l 1,1,-1
 335 836 l 1,2,-1
 335 60 l 1,3,-1
 489 60 l 1,4,-1
 489 0 l 1,5,-1
 106 0 l 1,6,-1
 106 60 l 1,7,-1
 256 60 l 1,8,-1
 256 776 l 1,9,-1
 106 776 l 1,0,-1
EndSplineSet
EndChar

StartChar: IJ
Encoding: 306 306 214
Width: 1073
GlyphClass: 2
Flags: W
LayerCount: 2
Fore
SplineSet
793 1174 m 1,0,-1
 654 1174 l 1,1,-1
 654 1234 l 1,2,-1
 1014 1234 l 1,3,-1
 1014 1174 l 1,4,-1
 875 1174 l 1,5,-1
 875 60 l 1,6,7
 876 -91 876 -91 762 -99 c 0,8,9
 732 -101 732 -101 706 -101 c 2,10,-1
 635 -101 l 1,11,-1
 635 -41 l 1,12,-1
 719 -41 l 2,13,14
 771 -41 771 -41 782 -10.5 c 128,-1,15
 793 20 793 20 793 59 c 2,16,-1
 793 1174 l 1,0,-1
505 1234 m 1,17,-1
 505 1171 l 1,18,-1
 345 1171 l 1,19,-1
 345 62 l 1,20,-1
 505 62 l 1,21,-1
 505 0 l 1,22,-1
 102 0 l 1,23,-1
 102 62 l 1,24,-1
 263 62 l 1,25,-1
 263 1171 l 1,26,-1
 102 1171 l 1,27,-1
 102 1234 l 1,28,-1
 505 1234 l 1,17,-1
EndSplineSet
EndChar

StartChar: ij
Encoding: 307 307 215
Width: 1008
GlyphClass: 2
Flags: W
LayerCount: 2
Fore
SplineSet
742 779 m 1,0,-1
 605 779 l 1,1,-1
 605 836 l 1,2,-1
 821 836 l 1,3,-1
 821 -22 l 1,4,5
 822 -145 822 -145 798 -186 c 0,6,7
 749 -271 749 -271 607 -271 c 2,8,-1
 527 -271 l 1,9,-1
 527 -211 l 1,10,-1
 605 -211 l 2,11,12
 699 -211 699 -211 720.5 -174 c 0,13,14
 742 -137 742 -137 742 -34 c 2,15,-1
 742 779 l 1,0,-1
724 1148 m 0,16,17
 724 1205 724 1205 786 1205 c 256,18,19
 848 1205 848 1205 848 1148 c 0,20,21
 848 1128 848 1128 832.5 1110 c 128,-1,22
 817 1092 817 1092 785.5 1092 c 128,-1,23
 754 1092 754 1092 739 1110 c 128,-1,24
 724 1128 724 1128 724 1148 c 0,16,17
237 1148 m 0,25,26
 237 1205 237 1205 299 1205 c 256,27,28
 331 1205 331 1205 346.5 1187.5 c 128,-1,29
 362 1170 362 1170 362 1149 c 128,-1,30
 362 1128 362 1128 346 1110 c 128,-1,31
 330 1092 330 1092 298.5 1092 c 128,-1,32
 267 1092 267 1092 252 1110 c 128,-1,33
 237 1128 237 1128 237 1148 c 0,25,26
113 776 m 1,34,-1
 113 836 l 1,35,-1
 342 836 l 1,36,-1
 342 60 l 1,37,-1
 496 60 l 1,38,-1
 496 0 l 1,39,-1
 113 0 l 1,40,-1
 113 60 l 1,41,-1
 263 60 l 1,42,-1
 263 776 l 1,43,-1
 113 776 l 1,34,-1
EndSplineSet
EndChar

StartChar: kgreenlandic
Encoding: 312 312 219
Width: 1141
GlyphClass: 2
Flags: W
LayerCount: 2
Fore
SplineSet
102 778 m 1,0,-1
 102 838 l 1,1,-1
 367 838 l 1,2,-1
 367 445 l 1,3,-1
 761 776 l 1,4,-1
 637 776 l 1,5,-1
 637 836 l 1,6,-1
 1022 836 l 1,7,-1
 1022 776 l 1,8,-1
 863 776 l 1,9,-1
 460 439 l 1,10,-1
 906 60 l 1,11,-1
 1057 60 l 1,12,-1
 1057 0 l 1,13,-1
 674 0 l 1,14,-1
 674 60 l 1,15,-1
 797 60 l 1,16,-1
 367 422 l 1,17,-1
 367 60 l 1,18,-1
 551 60 l 1,19,-1
 551 0 l 1,20,-1
 102 0 l 1,21,-1
 102 60 l 1,22,-1
 288 60 l 1,23,-1
 288 778 l 1,24,-1
 102 778 l 1,0,-1
EndSplineSet
EndChar

StartChar: Lslash
Encoding: 321 321 222
Width: 1169
GlyphClass: 2
Flags: W
LayerCount: 2
Fore
SplineSet
493 1234 m 1,0,-1
 493 1174 l 1,1,-1
 354 1174 l 1,2,-1
 354 764 l 1,3,-1
 562 887 l 1,4,-1
 562 807 l 1,5,-1
 354 684 l 1,6,-1
 354 70 l 1,7,-1
 982 70 l 1,8,-1
 982 412 l 1,9,-1
 1058 412 l 1,10,-1
 1058 0 l 1,11,-1
 133 0 l 1,12,-1
 133 70 l 1,13,-1
 272 70 l 1,14,-1
 272 635 l 1,15,-1
 140 557 l 1,16,-1
 140 637 l 1,17,-1
 272 715 l 1,18,-1
 272 1174 l 1,19,-1
 133 1174 l 1,20,-1
 133 1234 l 1,21,-1
 493 1234 l 1,0,-1
EndSplineSet
EndChar

StartChar: lslash
Encoding: 322 322 223
Width: 680
GlyphClass: 2
Flags: W
LayerCount: 2
Fore
SplineSet
563 887 m 1,0,-1
 563 807 l 1,1,-1
 392 706 l 1,2,-1
 392 60 l 1,3,-1
 576 60 l 1,4,-1
 576 0 l 1,5,-1
 127 0 l 1,6,-1
 127 60 l 1,7,-1
 313 60 l 1,8,-1
 313 659 l 1,9,-1
 141 557 l 1,10,-1
 141 637 l 1,11,-1
 313 739 l 1,12,-1
 313 1174 l 1,13,-1
 127 1174 l 1,14,-1
 127 1234 l 1,15,-1
 392 1234 l 1,16,-1
 392 786 l 1,17,-1
 563 887 l 1,0,-1
EndSplineSet
EndChar

StartChar: OE
Encoding: 338 338 226
Width: 1937
GlyphClass: 2
Flags: W
LayerCount: 2
Fore
SplineSet
1068 1164 m 1,0,-1
 1068 666 l 1,1,-1
 1501 666 l 1,2,-1
 1501 824 l 1,3,-1
 1568 824 l 1,4,-1
 1568 424 l 1,5,-1
 1501 424 l 1,6,-1
 1501 596 l 1,7,-1
 1068 596 l 1,8,-1
 1068 70 l 1,9,-1
 1729 70 l 1,10,-1
 1729 376 l 1,11,-1
 1806 376 l 1,12,-1
 1806 0 l 1,13,-1
 716 0 l 2,14,15
 413 0 413 0 244.5 182 c 128,-1,16
 76 364 76 364 76 614.5 c 128,-1,17
 76 865 76 865 245.5 1049.5 c 128,-1,18
 415 1234 415 1234 716 1234 c 2,19,-1
 1784 1234 l 1,20,-1
 1784 858 l 1,21,-1
 1707 858 l 1,22,-1
 1707 1164 l 1,23,-1
 1068 1164 l 1,0,-1
986 1158 m 1,24,-1
 716 1158 l 2,25,26
 454 1158 454 1158 307 996 c 128,-1,27
 160 834 160 834 160 612 c 128,-1,28
 160 390 160 390 305.5 230 c 128,-1,29
 451 70 451 70 716 70 c 2,30,-1
 986 70 l 1,31,-1
 986 1158 l 1,24,-1
EndSplineSet
EndChar

StartChar: oe
Encoding: 339 339 227
Width: 1720
GlyphClass: 2
Flags: W
LayerCount: 2
Fore
SplineSet
1655 149 m 1,0,1
 1488 -14 1488 -14 1288.5 -14 c 128,-1,2
 1089 -14 1089 -14 962 130 c 0,3,4
 922 176 922 176 897 232 c 1,5,6
 824 54 824 54 620 2 c 0,7,8
 560 -14 560 -14 488 -14 c 0,9,10
 320 -14 320 -14 189.5 102.5 c 128,-1,11
 59 219 59 219 59 422.5 c 128,-1,12
 59 626 59 626 189 740 c 128,-1,13
 319 854 319 854 509 854 c 128,-1,14
 699 854 699 854 829 716 c 0,15,16
 872 670 872 670 898 610 c 1,17,18
 1001 854 1001 854 1292 854 c 0,19,20
 1469 854 1469 854 1573.5 723 c 128,-1,21
 1678 592 1678 592 1678 400 c 1,22,-1
 939 400 l 1,23,24
 956 149 956 149 1162 74 c 0,25,26
 1222 52 1222 52 1288 52 c 0,27,28
 1484 52 1484 52 1622 204 c 1,29,-1
 1655 149 l 1,0,1
749.5 690 m 128,-1,31
 642 787 642 787 498 787 c 128,-1,32
 354 787 354 787 247.5 691 c 128,-1,33
 141 595 141 595 141 421.5 c 128,-1,34
 141 248 141 248 247 150.5 c 128,-1,35
 353 53 353 53 498 53 c 128,-1,36
 643 53 643 53 750 151.5 c 128,-1,37
 857 250 857 250 857 421.5 c 128,-1,30
 857 593 857 593 749.5 690 c 128,-1,31
1600 466 m 1,38,39
 1583 679 1583 679 1417 760 c 0,40,41
 1362 787 1362 787 1285 787 c 0,42,43
 1133 787 1133 787 1040 690 c 128,-1,44
 947 593 947 593 941 466 c 1,45,-1
 1600 466 l 1,38,39
EndSplineSet
EndChar

StartChar: florin
Encoding: 402 402 238
Width: 729
GlyphClass: 2
Flags: W
LayerCount: 2
Fore
SplineSet
710 1165 m 1,0,1
 658 1183 658 1183 617 1183 c 0,2,3
 524 1183 524 1183 501 1080 c 1,4,-1
 434 836 l 1,5,-1
 636 836 l 1,6,-1
 621 779 l 1,7,-1
 418 779 l 1,8,-1
 220 60 l 1,9,10
 182 -74 182 -74 52 -84 c 0,11,12
 16 -86 16 -86 -18 -86 c 1,13,-1
 -2 -24 l 1,14,15
 85 -24 85 -24 108.5 2 c 128,-1,16
 132 28 132 28 141 60 c 2,17,-1
 339 779 l 1,18,-1
 184 779 l 1,19,-1
 200 836 l 1,20,-1
 354 836 l 1,21,-1
 422 1078 l 1,22,23
 464 1244 464 1244 610 1244 c 0,24,25
 668 1244 668 1244 724 1219 c 1,26,-1
 710 1165 l 1,0,1
EndSplineSet
EndChar

StartChar: dotlessj
Encoding: 567 567 267
Width: 397
GlyphClass: 2
Flags: W
LayerCount: 2
Fore
SplineSet
25 779 m 1,0,-1
 25 860 l 1,1,-1
 241 860 l 1,2,-1
 241 -44 l 2,3,4
 241 -142.333333333 241 -142.333333333 216.5 -183.166666667 c 0,5,6
 163.8 -271 163.8 -271 16 -271 c 2,7,-1
 -80 -271 l 1,8,-1
 -80 -199 l 1,9,-1
 74 -199 l 2,10,11
 125 -199 125 -199 148.5 -151 c 128,-1,12
 172 -103 172 -103 172 0 c 2,13,-1
 172 779 l 1,14,-1
 25 779 l 1,0,-1
EndSplineSet
EndChar

StartChar: circumflex
Encoding: 710 710 268
Width: 598
GlyphClass: 2
Flags: W
LayerCount: 2
Fore
SplineSet
106 922 m 1,0,-1
 245 1195 l 1,1,-1
 340 1195 l 1,2,-1
 486 922 l 1,3,-1
 397 922 l 1,4,-1
 293 1146 l 1,5,-1
 188 922 l 1,6,-1
 106 922 l 1,0,-1
EndSplineSet
EndChar

StartChar: caron
Encoding: 711 711 269
Width: 598
GlyphClass: 2
Flags: W
LayerCount: 2
Fore
SplineSet
191 1195 m 1,0,-1
 296 971 l 1,1,-1
 400 1195 l 1,2,-1
 489 1195 l 1,3,-1
 343 922 l 1,4,-1
 248 922 l 1,5,-1
 109 1195 l 1,6,-1
 191 1195 l 1,0,-1
EndSplineSet
EndChar

StartChar: breve
Encoding: 728 728 270
Width: 586
GlyphClass: 2
Flags: W
LayerCount: 2
Fore
SplineSet
286 1136 m 0,0,1
 399 1136 399 1136 414 1248 c 1,2,-1
 457 1248 l 1,3,4
 446 1126 446 1126 352 1090 c 0,5,6
 324 1080 324 1080 296 1080 c 256,7,8
 200 1080 200 1080 152 1174 c 0,9,10
 136 1206 136 1206 131 1248 c 1,11,-1
 182 1248 l 1,12,13
 187 1192 187 1192 221.5 1164 c 128,-1,14
 256 1136 256 1136 286 1136 c 0,0,1
EndSplineSet
EndChar

StartChar: dotaccent
Encoding: 729 729 271
Width: 397
GlyphClass: 2
Flags: W
LayerCount: 2
Fore
SplineSet
257 1184 m 1,0,-1
 257 1064 l 1,1,-1
 141 1064 l 1,2,-1
 141 1184 l 1,3,-1
 257 1184 l 1,0,-1
EndSplineSet
EndChar

StartChar: ring
Encoding: 730 730 272
Width: 590
GlyphClass: 2
Flags: W
LayerCount: 2
Fore
SplineSet
310 1291 m 0,0,1
 173 1291 173 1291 173 1152 c 0,2,3
 173 1115 173 1115 206 1077 c 128,-1,4
 239 1039 239 1039 296.5 1039 c 128,-1,5
 354 1039 354 1039 386 1077.5 c 128,-1,6
 418 1116 418 1116 418 1165.5 c 128,-1,7
 418 1215 418 1215 386 1253 c 128,-1,8
 354 1291 354 1291 310 1291 c 0,0,1
125 1165 m 256,9,10
 125 1276 125 1276 222 1321 c 0,11,12
 254 1336 254 1336 296 1336 c 256,13,14
 416 1336 416 1336 455 1228 c 0,15,16
 466 1198 466 1198 466 1165 c 256,17,18
 466 1054 466 1054 370 1010 c 0,19,20
 338 996 338 996 296 995 c 256,21,22
 175 994 175 994 136 1102 c 0,23,24
 125 1132 125 1132 125 1165 c 256,9,10
EndSplineSet
EndChar

StartChar: ogonek
Encoding: 731 731 273
Width: 530
GlyphClass: 2
Flags: W
LayerCount: 2
Fore
SplineSet
303 -364 m 0,0,1
 119 -364 119 -364 119 -227.5 c 128,-1,2
 119 -91 119 -91 240 0 c 1,3,-1
 293 0 l 1,4,5
 202 -87 202 -87 202 -174 c 0,6,7
 202 -278 202 -278 320 -278 c 0,8,9
 372 -278 372 -278 425 -256 c 1,10,-1
 425 -319 l 1,11,12
 360 -364 360 -364 303 -364 c 0,0,1
EndSplineSet
EndChar

StartChar: tilde
Encoding: 732 732 274
Width: 717
GlyphClass: 2
Flags: W
LayerCount: 2
Fore
SplineSet
465 1022 m 0,0,1
 420 1022 420 1022 334 1045.5 c 128,-1,2
 248 1069 248 1069 211.5 1069 c 128,-1,3
 175 1069 175 1069 163 1028 c 1,4,-1
 125 1028 l 1,5,6
 140 1157 140 1157 249 1157 c 0,7,8
 291 1157 291 1157 371 1133.5 c 128,-1,9
 451 1110 451 1110 494 1110 c 128,-1,10
 537 1110 537 1110 552 1153 c 1,11,-1
 589 1153 l 1,12,13
 574 1022 574 1022 465 1022 c 0,0,1
EndSplineSet
EndChar

StartChar: hungarumlaut
Encoding: 733 733 275
Width: 623
GlyphClass: 2
Flags: W
LayerCount: 2
Fore
SplineSet
335 985 m 1,0,-1
 394 1234 l 1,1,-1
 520 1234 l 1,2,-1
 366 985 l 1,3,-1
 335 985 l 1,0,-1
125 985 m 1,4,-1
 184 1234 l 1,5,-1
 310 1234 l 1,6,-1
 156 985 l 1,7,-1
 125 985 l 1,4,-1
EndSplineSet
EndChar

StartChar: dotaccentcmb
Encoding: 775 775 276
Width: 397
GlyphClass: 2
Flags: W
LayerCount: 2
Fore
SplineSet
257 1184 m 1,0,-1
 257 1064 l 1,1,-1
 141 1064 l 1,2,-1
 141 1184 l 1,3,-1
 257 1184 l 1,0,-1
EndSplineSet
EndChar

StartChar: uni030F
Encoding: 783 783 277
Width: 627
GlyphClass: 2
Flags: W
LayerCount: 2
Fore
SplineSet
258 985 m 1,0,-1
 104 1234 l 1,1,-1
 230 1234 l 1,2,-1
 289 985 l 1,3,-1
 258 985 l 1,0,-1
468 985 m 1,4,-1
 314 1234 l 1,5,-1
 440 1234 l 1,6,-1
 499 985 l 1,7,-1
 468 985 l 1,4,-1
EndSplineSet
EndChar

StartChar: uni0311
Encoding: 785 785 278
Width: 854
GlyphClass: 2
Flags: W
LayerCount: 2
Fore
SplineSet
131 1080 m 1,0,1
 153 1272 153 1272 461 1272 c 0,2,3
 554 1272 554 1272 632.5 1219 c 128,-1,4
 711 1166 711 1166 721 1080 c 1,5,-1
 642 1080 l 1,6,7
 618 1218 618 1218 430 1218 c 128,-1,8
 242 1218 242 1218 218 1080 c 1,9,-1
 131 1080 l 1,0,1
EndSplineSet
EndChar

StartChar: uni0326
Encoding: 806 806 279
Width: 412
GlyphClass: 2
Flags: W
LayerCount: 2
Fore
SplineSet
274 116 m 1,0,-1
 274 -6 l 2,1,2
 274 -180 274 -180 139 -180 c 1,3,-1
 139 -136 l 1,4,5
 186 -121 186 -121 198 -95 c 128,-1,6
 210 -69 210 -69 210 -4 c 1,7,-1
 148 -4 l 1,8,-1
 148 116 l 1,9,-1
 274 116 l 1,0,-1
EndSplineSet
EndChar

StartChar: pi
Encoding: 960 960 280
Width: 1137
GlyphClass: 2
Flags: W
LayerCount: 2
Fore
SplineSet
281 806 m 2,0,1
 212 806 212 806 205 709 c 1,2,-1
 168 709 l 1,3,4
 168 810 168 810 222 828 c 0,5,6
 244 836 244 836 282 836 c 2,7,-1
 963 836 l 1,8,-1
 963 806 l 1,9,-1
 855 806 l 1,10,-1
 855 168 l 2,11,12
 855 49 855 49 927 49 c 0,13,14
 950 49 950 49 983 58 c 1,15,-1
 983 13 l 1,16,17
 929 -13 929 -13 887 -13 c 0,18,19
 768 -13 768 -13 768 179 c 2,20,-1
 769 806 l 1,21,-1
 407 806 l 1,22,-1
 372 308 l 2,23,24
 360 136 360 136 313.5 66 c 128,-1,25
 267 -4 267 -4 162 -4 c 1,26,-1
 162 53 l 1,27,28
 244 54 244 54 264 122 c 0,29,30
 274 156 274 156 277.5 208 c 128,-1,31
 281 260 281 260 287 330 c 2,32,-1
 330 806 l 1,33,-1
 281 806 l 2,0,1
EndSplineSet
EndChar

StartChar: endash
Encoding: 8211 8211 281
Width: 995
GlyphClass: 2
Flags: W
LayerCount: 2
Fore
SplineSet
859 60 m 1,0,-1
 859 0 l 1,1,-1
 143 0 l 1,2,-1
 143 60 l 1,3,-1
 859 60 l 1,0,-1
EndSplineSet
EndChar

StartChar: emdash
Encoding: 8212 8212 282
Width: 1358
GlyphClass: 2
Flags: W
LayerCount: 2
Fore
SplineSet
1220 60 m 1,0,-1
 1220 0 l 1,1,-1
 143 0 l 1,2,-1
 143 60 l 1,3,-1
 1220 60 l 1,0,-1
EndSplineSet
EndChar

StartChar: quoteleft
Encoding: 8216 8216 283
Width: 401
GlyphClass: 2
Flags: W
LayerCount: 2
Fore
SplineSet
135 959 m 1,0,-1
 135 1081 l 2,1,2
 135 1255 135 1255 271 1255 c 1,3,-1
 271 1211 l 1,4,5
 224 1196 224 1196 212 1170 c 128,-1,6
 200 1144 200 1144 200 1079 c 1,7,-1
 261 1079 l 1,8,-1
 261 959 l 1,9,-1
 135 959 l 1,0,-1
EndSplineSet
EndChar

StartChar: quoteright
Encoding: 8217 8217 284
Width: 401
GlyphClass: 2
Flags: W
LayerCount: 2
Fore
SplineSet
269 1234 m 1,0,-1
 269 1111 l 2,1,2
 269 937 269 937 133 937 c 1,3,-1
 133 982 l 1,4,5
 180 997 180 997 192 1022.5 c 128,-1,6
 204 1048 204 1048 204 1114 c 1,7,-1
 143 1114 l 1,8,-1
 143 1234 l 1,9,-1
 269 1234 l 1,0,-1
EndSplineSet
EndChar

StartChar: quotesinglbase
Encoding: 8218 8218 285
Width: 412
GlyphClass: 2
Flags: W
LayerCount: 2
Fore
SplineSet
274 116 m 1,0,-1
 274 -6 l 2,1,2
 274 -180 274 -180 139 -180 c 1,3,-1
 139 -136 l 1,4,5
 186 -121 186 -121 198 -95 c 128,-1,6
 210 -69 210 -69 210 -4 c 1,7,-1
 148 -4 l 1,8,-1
 148 116 l 1,9,-1
 274 116 l 1,0,-1
EndSplineSet
EndChar

StartChar: quotedblleft
Encoding: 8220 8220 286
Width: 627
GlyphClass: 2
Flags: W
LayerCount: 2
Fore
SplineSet
361 959 m 1,0,-1
 361 1081 l 2,1,2
 361 1255 361 1255 497 1255 c 1,3,-1
 497 1211 l 1,4,5
 450 1196 450 1196 438 1170 c 128,-1,6
 426 1144 426 1144 426 1079 c 1,7,-1
 487 1079 l 1,8,-1
 487 959 l 1,9,-1
 361 959 l 1,0,-1
135 959 m 1,10,-1
 135 1081 l 2,11,12
 135 1255 135 1255 271 1255 c 1,13,-1
 271 1211 l 1,14,15
 224 1196 224 1196 212 1170 c 128,-1,16
 200 1144 200 1144 200 1079 c 1,17,-1
 261 1079 l 1,18,-1
 261 959 l 1,19,-1
 135 959 l 1,10,-1
EndSplineSet
EndChar

StartChar: quotedblright
Encoding: 8221 8221 287
Width: 627
GlyphClass: 2
Flags: W
LayerCount: 2
Fore
SplineSet
269 1234 m 1,0,-1
 269 1111 l 2,1,2
 269 937 269 937 133 937 c 1,3,-1
 133 982 l 1,4,5
 180 997 180 997 192 1022.5 c 128,-1,6
 204 1048 204 1048 204 1114 c 1,7,-1
 143 1114 l 1,8,-1
 143 1234 l 1,9,-1
 269 1234 l 1,0,-1
495 1234 m 1,10,-1
 495 1111 l 2,11,12
 495 937 495 937 359 937 c 1,13,-1
 359 982 l 1,14,15
 406 997 406 997 418 1022.5 c 128,-1,16
 430 1048 430 1048 430 1114 c 1,17,-1
 369 1114 l 1,18,-1
 369 1234 l 1,19,-1
 495 1234 l 1,10,-1
EndSplineSet
EndChar

StartChar: quotedblbase
Encoding: 8222 8222 288
Width: 664
GlyphClass: 2
Flags: W
LayerCount: 2
Fore
SplineSet
274 116 m 1,0,-1
 274 -6 l 2,1,2
 274 -180 274 -180 139 -180 c 1,3,-1
 139 -136 l 1,4,5
 186 -121 186 -121 198 -95 c 128,-1,6
 210 -69 210 -69 210 -4 c 1,7,-1
 148 -4 l 1,8,-1
 148 116 l 1,9,-1
 274 116 l 1,0,-1
525 116 m 1,10,-1
 525 -6 l 2,11,12
 525 -180 525 -180 390 -180 c 1,13,-1
 390 -136 l 1,14,15
 454 -115 454 -115 458 -57 c 0,16,17
 460 -36 460 -36 460 -4 c 1,18,-1
 399 -4 l 1,19,-1
 399 116 l 1,20,-1
 525 116 l 1,10,-1
EndSplineSet
EndChar

StartChar: dagger
Encoding: 8224 8224 289
Width: 580
GlyphClass: 2
Flags: W
LayerCount: 2
Fore
SplineSet
269 2 m 1,0,-1
 243 590 l 1,1,2
 243 747 243 747 269 887 c 1,3,-1
 39 862 l 1,4,-1
 39 941 l 1,5,-1
 269 923 l 1,6,-1
 236 1210 l 1,7,-1
 342 1210 l 1,8,-1
 309 923 l 1,9,-1
 536 941 l 1,10,-1
 536 862 l 1,11,-1
 309 887 l 1,12,13
 335 750 335 750 335 593 c 257,14,-1
 309 2 l 1,15,-1
 269 2 l 1,0,-1
EndSplineSet
EndChar

StartChar: daggerdbl
Encoding: 8225 8225 290
Width: 639
GlyphClass: 2
Flags: W
LayerCount: 2
Fore
SplineSet
302 299 m 1,0,1
 288 365 288 365 288 593 c 256,2,3
 288 817 288 817 302 887 c 1,4,-1
 72 862 l 1,5,-1
 72 941 l 1,6,-1
 302 923 l 1,7,-1
 269 1210 l 1,8,-1
 375 1210 l 1,9,-1
 342 923 l 1,10,-1
 569 941 l 1,11,-1
 569 862 l 1,12,-1
 342 887 l 1,13,14
 356 794 356 794 356 591 c 128,-1,15
 356 388 356 388 342 299 c 1,16,-1
 569 324 l 1,17,-1
 569 245 l 1,18,-1
 342 263 l 1,19,-1
 375 -24 l 1,20,-1
 269 -24 l 1,21,-1
 302 263 l 1,22,-1
 72 245 l 1,23,-1
 72 324 l 1,24,-1
 302 299 l 1,0,1
EndSplineSet
EndChar

StartChar: bullet
Encoding: 8226 8226 291
Width: 739
GlyphClass: 2
Flags: W
LayerCount: 2
Fore
SplineSet
369 905 m 256,0,1
 469 905 469 905 539.5 838 c 128,-1,2
 610 771 610 771 610 674.5 c 128,-1,3
 610 578 610 578 540 510 c 128,-1,4
 470 442 470 442 369 442 c 256,5,6
 268 442 268 442 198.5 509.5 c 128,-1,7
 129 577 129 577 129 674.5 c 128,-1,8
 129 772 129 772 199 838.5 c 128,-1,9
 269 905 269 905 369 905 c 256,0,1
EndSplineSet
EndChar

StartChar: ellipsis
Encoding: 8230 8230 292
Width: 926
GlyphClass: 2
Flags: W
LayerCount: 2
Fore
SplineSet
263 120 m 1,0,-1
 263 0 l 1,1,-1
 147 0 l 1,2,-1
 147 120 l 1,3,-1
 263 120 l 1,0,-1
524 120 m 1,4,-1
 524 0 l 1,5,-1
 407 0 l 1,6,-1
 407 120 l 1,7,-1
 524 120 l 1,4,-1
784 120 m 1,8,-1
 784 0 l 1,9,-1
 668 0 l 1,10,-1
 668 120 l 1,11,-1
 784 120 l 1,8,-1
EndSplineSet
EndChar

StartChar: guilsinglleft
Encoding: 8249 8249 293
Width: 512
GlyphClass: 2
Flags: W
LayerCount: 2
Fore
SplineSet
348 1043 m 1,0,-1
 396 1043 l 1,1,-1
 184 664 l 1,2,-1
 396 281 l 1,3,-1
 348 281 l 1,4,-1
 76 664 l 1,5,-1
 348 1043 l 1,0,-1
EndSplineSet
EndChar

StartChar: guilsinglright
Encoding: 8250 8250 294
Width: 512
GlyphClass: 2
Flags: W
LayerCount: 2
Fore
SplineSet
437 664 m 1,0,-1
 165 281 l 1,1,-1
 117 281 l 1,2,-1
 329 664 l 1,3,-1
 117 1043 l 1,4,-1
 165 1043 l 1,5,-1
 437 664 l 1,0,-1
EndSplineSet
EndChar

StartChar: fraction
Encoding: 8260 8260 295
Width: 537
GlyphClass: 2
Flags: W
LayerCount: 2
Fore
SplineSet
415 1255 m 1,0,-1
 486 1255 l 1,1,-1
 118 -23 l 1,2,-1
 43 -23 l 1,3,-1
 415 1255 l 1,0,-1
EndSplineSet
EndChar

StartChar: foursuperior
Encoding: 8308 8308 296
Width: 770
GlyphClass: 2
Flags: W
LayerCount: 2
Fore
SplineSet
74 316 m 1,0,-1
 412 866 l 1,1,-1
 504 866 l 1,2,-1
 504 323 l 1,3,-1
 682 323 l 1,4,-1
 682 260 l 1,5,-1
 504 260 l 1,6,-1
 504 61 l 1,7,-1
 616 61 l 1,8,-1
 616 0 l 1,9,-1
 319 0 l 1,10,-1
 319 61 l 1,11,-1
 431 61 l 1,12,-1
 431 260 l 1,13,-1
 83 260 l 1,14,-1
 74 316 l 1,0,-1
431 323 m 1,15,-1
 431 768 l 1,16,17
 363 654 363 654 297 546 c 128,-1,18
 231 438 231 438 164 323 c 1,19,-1
 431 323 l 1,15,-1
EndSplineSet
EndChar

StartChar: Euro
Encoding: 8364 8364 297
Width: 1303
GlyphClass: 2
Flags: W
LayerCount: 2
Fore
SplineSet
1160 994 m 1,0,1
 991 1178 991 1178 753.5 1178 c 128,-1,2
 516 1178 516 1178 360 952 c 0,3,4
 312 882 312 882 286 794 c 1,5,-1
 901 794 l 1,6,-1
 901 732 l 1,7,-1
 272 732 l 1,8,9
 262 678 262 678 262 622 c 256,10,11
 262 575 262 575 269 517 c 1,12,-1
 901 517 l 1,13,-1
 901 455 l 1,14,-1
 280 455 l 1,15,16
 323 261 323 261 462.5 154 c 128,-1,17
 602 47 602 47 793 47 c 128,-1,18
 984 47 984 47 1175 174 c 1,19,-1
 1209 110 l 1,20,21
 1009 -22 1009 -22 779 -22 c 0,22,23
 440 -22 440 -22 274 245 c 0,24,25
 218 335 218 335 194 455 c 1,26,-1
 10 455 l 1,27,-1
 10 517 l 1,28,-1
 184 517 l 1,29,30
 178 595 178 595 178 636.5 c 128,-1,31
 178 678 178 678 187 732 c 1,32,-1
 10 732 l 1,33,-1
 10 794 l 1,34,-1
 200 794 l 1,35,36
 253 997 253 997 415 1126 c 128,-1,37
 577 1255 577 1255 779 1255 c 128,-1,38
 981 1255 981 1255 1147 1099 c 1,39,-1
 1147 1237 l 1,40,-1
 1222 1237 l 1,41,-1
 1222 1007 l 1,42,-1
 1160 994 l 1,0,1
EndSplineSet
EndChar

StartChar: trademark
Encoding: 8482 8482 298
Width: 1634
GlyphClass: 2
Flags: W
LayerCount: 2
Fore
SplineSet
642 1236 m 1,0,-1
 642 1026 l 1,1,-1
 585 1026 l 1,2,-1
 585 1183 l 1,3,-1
 393 1183 l 1,4,-1
 393 660 l 1,5,-1
 480 660 l 1,6,-1
 480 612 l 1,7,-1
 248 612 l 1,8,-1
 248 660 l 1,9,-1
 334 660 l 1,10,-1
 334 1183 l 1,11,-1
 146 1183 l 1,12,-1
 146 1026 l 1,13,-1
 90 1026 l 1,14,-1
 90 1236 l 1,15,-1
 642 1236 l 1,0,-1
1144 760 m 1,16,-1
 1365 1236 l 1,17,-1
 1506 1236 l 1,18,-1
 1506 1187 l 1,19,-1
 1428 1187 l 1,20,-1
 1428 661 l 1,21,-1
 1506 661 l 1,22,-1
 1506 612 l 1,23,-1
 1291 612 l 1,24,-1
 1291 661 l 1,25,-1
 1370 661 l 1,26,-1
 1370 1114 l 1,27,-1
 1144 638 l 1,28,-1
 910 1115 l 1,29,-1
 910 661 l 1,30,-1
 990 661 l 1,31,-1
 990 612 l 1,32,-1
 774 612 l 1,33,-1
 774 661 l 1,34,-1
 853 661 l 1,35,-1
 853 1187 l 1,36,-1
 774 1187 l 1,37,-1
 774 1236 l 1,38,-1
 915 1236 l 1,39,-1
 1144 760 l 1,16,-1
EndSplineSet
EndChar

StartChar: partialdiff
Encoding: 8706 8706 299
Width: 887
GlyphClass: 2
Flags: W
LayerCount: 2
Fore
SplineSet
214.5 139 m 128,-1,1
 298 49 298 49 447 49 c 128,-1,2
 596 49 596 49 677 135 c 128,-1,3
 758 221 758 221 758 356.5 c 128,-1,4
 758 492 758 492 664.5 575 c 128,-1,5
 571 658 571 658 443 658 c 256,6,7
 315 658 315 658 250 601 c 0,8,9
 131 497 131 497 131 363 c 128,-1,0
 131 229 131 229 214.5 139 c 128,-1,1
343 1361 m 1,10,-1
 701 697 l 1,11,12
 835 472 835 472 835 367 c 0,13,14
 835 185 835 185 717 81 c 128,-1,15
 599 -23 599 -23 474 -23 c 0,16,17
 261 -23 261 -23 155 93 c 128,-1,18
 49 209 49 209 49 363.5 c 128,-1,19
 49 518 49 518 162.5 622 c 128,-1,20
 276 726 276 726 403 726 c 128,-1,21
 530 726 530 726 628 678 c 1,22,-1
 276 1314 l 1,23,-1
 343 1361 l 1,10,-1
EndSplineSet
EndChar

StartChar: Delta
Encoding: 8710 8710 300
Width: 760
GlyphClass: 2
Flags: W
LayerCount: 2
Fore
SplineSet
699 0 m 1,0,-1
 63 0 l 1,1,-1
 63 67 l 1,2,-1
 380 1062 l 1,3,-1
 699 66 l 1,4,-1
 699 0 l 1,0,-1
649 61 m 1,5,-1
 380 935 l 1,6,-1
 110 61 l 1,7,-1
 649 61 l 1,5,-1
EndSplineSet
EndChar

StartChar: minus
Encoding: 8722 8722 303
Width: 1233
GlyphClass: 2
Flags: W
LayerCount: 2
Fore
SplineSet
1109 959 m 1,0,-1
 1109 872 l 1,1,-1
 125 872 l 1,2,-1
 125 959 l 1,3,-1
 1109 959 l 1,0,-1
EndSplineSet
EndChar

StartChar: infinity
Encoding: 8734 8734 305
Width: 1294
GlyphClass: 2
Flags: W
LayerCount: 2
Fore
SplineSet
647 644 m 1,0,1
 747 832 747 832 913 832 c 0,2,3
 1013 832 1013 832 1066 779 c 0,4,5
 1160 683 1160 683 1160 550.5 c 128,-1,6
 1160 418 1160 418 1085 341.5 c 128,-1,7
 1010 265 1010 265 912 265 c 0,8,9
 745 265 745 265 650 462 c 1,10,11
 546 270 546 270 374 270 c 0,12,13
 135 270 135 270 135 582 c 0,14,15
 135 670 135 670 204 753 c 128,-1,16
 273 836 273 836 384.5 836 c 128,-1,17
 496 836 496 836 588 732 c 0,18,19
 620 696 620 696 647 644 c 1,0,1
915 316 m 256,20,21
 1092 316 1092 316 1092 572 c 0,22,23
 1092 647 1092 647 1043 713.5 c 0,24,25
 994 780 994 780 898 780 c 0,26,27
 782 780 782 780 673 548 c 1,28,29
 756 365 756 365 844 329 c 0,30,31
 876 316 876 316 915 316 c 256,20,21
387 785 m 0,32,33
 203 785 203 785 203 521 c 0,34,35
 203 449 203 449 249.5 384.5 c 128,-1,36
 296 320 296 320 372 320 c 0,37,38
 514 320 514 320 621 553 c 1,39,40
 522 785 522 785 387 785 c 0,32,33
EndSplineSet
EndChar

StartChar: integral
Encoding: 8747 8747 306
Width: 700
GlyphClass: 2
Flags: W
LayerCount: 2
Fore
SplineSet
701 1165 m 1,0,1
 649 1183 649 1183 608 1183 c 0,2,3
 519 1183 519 1183 492 1080 c 1,4,-1
 211 60 l 2,5,6
 174 -74 174 -74 44 -84 c 0,7,8
 8 -86 8 -86 -27 -86 c 1,9,-1
 -11 -24 l 1,10,11
 76 -24 76 -24 99.5 2 c 128,-1,12
 123 28 123 28 132 60 c 2,13,-1
 413 1078 l 2,14,15
 458 1244 458 1244 601 1244 c 0,16,17
 659 1244 659 1244 715 1219 c 1,18,-1
 701 1165 l 1,0,1
EndSplineSet
EndChar

StartChar: approxequal
Encoding: 8776 8776 307
Width: 811
GlyphClass: 2
Flags: W
LayerCount: 2
Fore
SplineSet
543 439 m 0,0,1
 484 439 484 439 373 462.5 c 128,-1,2
 262 486 262 486 221.5 486 c 128,-1,3
 181 486 181 486 169 445 c 1,4,-1
 131 445 l 1,5,6
 146 574 146 574 255 574 c 0,7,8
 312 574 312 574 415.5 550.5 c 128,-1,9
 519 527 519 527 567.5 527 c 128,-1,10
 616 527 616 527 630 570 c 1,11,-1
 667 570 l 1,12,13
 652 439 652 439 543 439 c 0,0,1
553 638 m 0,14,15
 495 638 495 638 384 661.5 c 128,-1,16
 273 685 273 685 231.5 685 c 128,-1,17
 190 685 190 685 180 644 c 1,18,-1
 142 644 l 1,19,20
 155 773 155 773 265 773 c 0,21,22
 323 773 323 773 426.5 749.5 c 128,-1,23
 530 726 530 726 577.5 726 c 128,-1,24
 625 726 625 726 641 769 c 1,25,-1
 678 769 l 1,26,27
 663 638 663 638 553 638 c 0,14,15
EndSplineSet
EndChar

StartChar: notequal
Encoding: 8800 8800 308
Width: 879
GlyphClass: 2
Flags: W
LayerCount: 2
Fore
SplineSet
468 677 m 1,0,-1
 517 868 l 1,1,-1
 575 868 l 1,2,-1
 522 677 l 1,3,-1
 797 677 l 1,4,-1
 797 613 l 1,5,-1
 510 613 l 1,6,-1
 437 337 l 1,7,-1
 797 337 l 1,8,-1
 797 276 l 1,9,-1
 420 276 l 1,10,-1
 373 84 l 1,11,-1
 313 84 l 1,12,-1
 363 276 l 1,13,-1
 94 276 l 1,14,-1
 94 337 l 1,15,-1
 381 337 l 1,16,-1
 453 613 l 1,17,-1
 94 613 l 1,18,-1
 94 677 l 1,19,-1
 468 677 l 1,0,-1
EndSplineSet
EndChar

StartChar: lessequal
Encoding: 8804 8804 309
Width: 905
GlyphClass: 2
Flags: W
LayerCount: 2
Fore
SplineSet
88 553 m 1,0,-1
 88 590 l 1,1,-1
 776 952 l 1,2,-1
 776 882 l 1,3,-1
 194 571 l 1,4,-1
 776 262 l 1,5,-1
 776 194 l 1,6,-1
 88 553 l 1,0,-1
88 58 m 1,7,-1
 776 58 l 1,8,-1
 776 0 l 1,9,-1
 88 0 l 1,10,-1
 88 58 l 1,7,-1
EndSplineSet
EndChar

StartChar: greaterequal
Encoding: 8805 8805 310
Width: 903
GlyphClass: 2
Flags: W
LayerCount: 2
Fore
SplineSet
133 194 m 1,0,-1
 133 262 l 1,1,-1
 715 571 l 1,2,-1
 133 882 l 1,3,-1
 133 952 l 1,4,-1
 821 590 l 1,5,-1
 821 553 l 1,6,-1
 133 194 l 1,0,-1
821 0 m 1,7,-1
 133 0 l 1,8,-1
 133 58 l 1,9,-1
 821 58 l 1,10,-1
 821 0 l 1,7,-1
EndSplineSet
EndChar

StartChar: lozenge
Encoding: 9674 9674 311
Width: 907
GlyphClass: 2
Flags: W
LayerCount: 2
Fore
SplineSet
481 -23 m 1,0,-1
 430 -23 l 1,1,-1
 29 614 l 1,2,-1
 430 1254 l 1,3,-1
 481 1254 l 1,4,-1
 881 616 l 1,5,-1
 481 -23 l 1,0,-1
458 1181 m 1,6,-1
 115 616 l 1,7,-1
 458 47 l 1,8,-1
 799 616 l 1,9,-1
 458 1181 l 1,6,-1
EndSplineSet
EndChar

StartChar: fi
Encoding: 64257 64257 312
Width: 1133
GlyphClass: 2
Flags: W
LayerCount: 2
Fore
SplineSet
921 1098 m 1,0,1
 921 1026 921 1026 856.5 1025.5 c 0,2,3
 792 1026 792 1026 792 1088 c 0,4,5
 792 1114 792 1114 820 1130 c 1,6,7
 754 1186 754 1186 637 1186 c 128,-1,8
 520 1186 520 1186 429 1127 c 128,-1,9
 338 1068 338 1068 338 972 c 2,10,-1
 338 836 l 1,11,-1
 901 836 l 1,12,-1
 901 60 l 1,13,-1
 1054 60 l 1,14,-1
 1054 0 l 1,15,-1
 672 0 l 1,16,-1
 672 60 l 1,17,-1
 822 60 l 1,18,-1
 822 776 l 1,19,-1
 338 776 l 1,20,-1
 338 60 l 1,21,-1
 529 60 l 1,22,-1
 529 0 l 1,23,-1
 104 0 l 1,24,-1
 104 60 l 1,25,-1
 259 60 l 1,26,-1
 259 776 l 1,27,-1
 104 776 l 1,28,-1
 104 836 l 1,29,-1
 259 836 l 1,30,-1
 259 970 l 2,31,32
 259 1095 259 1095 375.5 1171.5 c 128,-1,33
 492 1248 492 1248 654 1248 c 128,-1,34
 816 1248 816 1248 894 1160 c 0,35,36
 920 1132 920 1132 921 1098 c 1,0,1
EndSplineSet
LCarets2: 1 0 
Ligature2: "'liga' Standard Ligatures lookup 0 subtable" f i
EndChar

StartChar: fl
Encoding: 64258 64258 313
Width: 1194
GlyphClass: 2
Flags: W
LayerCount: 2
Fore
SplineSet
862 1123 m 2,0,1
 862 1190 862 1190 610 1190 c 0,2,3
 527 1190 527 1190 432.5 1132 c 128,-1,4
 338 1074 338 1074 338 965 c 2,5,-1
 338 836 l 1,6,-1
 541 836 l 1,7,-1
 541 779 l 1,8,-1
 338 779 l 1,9,-1
 338 60 l 1,10,-1
 529 60 l 1,11,-1
 529 0 l 1,12,-1
 104 0 l 1,13,-1
 104 60 l 1,14,-1
 259 60 l 1,15,-1
 259 779 l 1,16,-1
 104 779 l 1,17,-1
 104 836 l 1,18,-1
 259 836 l 1,19,-1
 259 962 l 2,20,21
 259 1102 259 1102 377 1177.5 c 128,-1,22
 495 1253 495 1253 670 1253 c 128,-1,23
 845 1253 845 1253 918 1180 c 0,24,25
 942 1156 942 1156 942 1123 c 2,26,-1
 942 60 l 1,27,-1
 1125 60 l 1,28,-1
 1125 0 l 1,29,-1
 676 0 l 1,30,-1
 676 60 l 1,31,-1
 862 60 l 1,32,-1
 862 1123 l 2,0,1
EndSplineSet
LCarets2: 1 0 
Ligature2: "'liga' Standard Ligatures lookup 0 subtable" f l
EndChar

StartChar: commaaccent
Encoding: 65537 -1 314
Width: 399
GlyphClass: 2
Flags: W
LayerCount: 2
Fore
SplineSet
266 1237 m 1,0,-1
 266 1115 l 2,1,2
 266 941 266 941 131 941 c 1,3,-1
 131 985 l 1,4,5
 178 1000 178 1000 190 1026 c 128,-1,6
 202 1052 202 1052 202 1117 c 1,7,-1
 140 1117 l 1,8,-1
 140 1237 l 1,9,-1
 266 1237 l 1,0,-1
EndSplineSet
EndChar

StartChar: dotaccentcmb.cap
Encoding: 65541 -1 318
Width: 389
GlyphClass: 2
Flags: W
LayerCount: 2
Fore
SplineSet
250 1121 m 1,0,-1
 250 1001 l 1,1,-1
 133 1001 l 1,2,-1
 133 1121 l 1,3,-1
 250 1121 l 1,0,-1
EndSplineSet
EndChar

